<?xml version="1.0" encoding="utf-8"?>
<!-- Generator: Adobe Illustrator 26.5.0, SVG Export Plug-In . SVG Version: 6.00 Build 0)  -->
<svg version="1.1" id="Layer_1" xmlns="http://www.w3.org/2000/svg" xmlns:xlink="http://www.w3.org/1999/xlink" x="0px" y="0px"
	 width="42px" height="42px" viewBox="0 0 42 42" style="enable-background:new 0 0 42 42;" xml:space="preserve">
<style type="text/css">
	.st0{fill:#1B54AA;}
</style>
<g>
	<path class="st0" d="M21,31l3.2-4.1h7.1v-13H10.7v13h7.1L21,31z M24.3,19.2h2.5v2.5h-2.5V19.2z M19.8,19.2h2.5v2.5h-2.5L19.8,19.2z
		 M17.8,21.6h-2.5v-2.5h2.5V21.6z"/>
	<path class="st0" d="M33.8,36.9h-8.4v-2.6h-5c-2.1,0-3.7,1.7-3.7,3.7v0.2c0,2.1,1.7,3.7,3.7,3.7h5v-2.6h10.9V30l1.5,0
		c2.3,0,4.2-1.9,4.2-4.2v-6c0-2.3-1.9-4.2-4.2-4.2h-1.5v-2.8C36.3,5.8,30.5,0,23.4,0h-4.8C11.5,0,5.7,5.8,5.7,12.9v2.8H4.2
		c-2.3,0-4.2,1.9-4.2,4.2v6C0,28.1,1.9,30,4.2,30h4V12.9c0-5.7,4.7-10.4,10.4-10.4h4.8c5.7,0,10.4,4.7,10.4,10.4L33.8,36.9
		L33.8,36.9z"/>
</g>
</svg>
