<?xml version="1.0" encoding="utf-8"?>
<!-- Generator: Adobe Illustrator 26.5.0, SVG Export Plug-In . SVG Version: 6.00 Build 0)  -->
<svg version="1.1" id="Layer_1" xmlns="http://www.w3.org/2000/svg" xmlns:xlink="http://www.w3.org/1999/xlink" x="0px" y="0px"
	 width="42px" height="42px" viewBox="0 0 42 42" style="enable-background:new 0 0 42 42;" xml:space="preserve">
<style type="text/css">
	.st0{fill-rule:evenodd;clip-rule:evenodd;fill:#1B54AA;}
</style>
<g>
	<path class="st0" d="M21.3,5.8l1.4,3.6c0,0.1,0.1,0.2,0.2,0.2l3.8,0.2c0.1,0,0.2,0.1,0.3,0.2c0,0.1,0,0.2-0.1,0.3l-3,2.4
		c-0.1,0.1-0.1,0.2-0.1,0.3l1,3.7c0,0.1,0,0.2-0.1,0.3s-0.2,0.1-0.3,0l-3.2-2.1c-0.1-0.1-0.2-0.1-0.3,0l-3.2,2.1
		c-0.1,0.1-0.2,0.1-0.3,0c-0.1-0.1-0.1-0.2-0.1-0.3l1-3.7c0-0.1,0-0.2-0.1-0.3l-3-2.4c-0.1-0.1-0.1-0.2-0.1-0.3
		c0-0.1,0.1-0.2,0.3-0.2l3.8-0.2c0.1,0,0.2-0.1,0.2-0.2l1.4-3.6c0-0.1,0.1-0.2,0.3-0.2C21.1,5.6,21.2,5.7,21.3,5.8L21.3,5.8z
		 M13.9,4.7l2.4,2.1c0.3,0.2,0.7,0.2,0.9,0c0.2-0.3,0.2-0.7,0-0.9l-2.4-2.1c-0.3-0.2-0.7-0.2-0.9,0S13.6,4.4,13.9,4.7L13.9,4.7z
		 M27.2,3.7l-2.4,2.2c-0.3,0.2-0.3,0.7,0,0.9c0.2,0.3,0.7,0.3,0.9,0l2.4-2.2c0.3-0.2,0.3-0.7,0-0.9C27.9,3.5,27.5,3.4,27.2,3.7z
		 M21.7,3.1c0,0.4-0.3,0.7-0.7,0.7s-0.7-0.3-0.7-0.7V0.7C20.3,0.3,20.6,0,21,0s0.7,0.3,0.7,0.7V3.1z M21,19.1c2.6,0,4.7,2.1,4.7,4.7
		c0,2.6-2.1,4.7-4.7,4.7s-4.7-2.1-4.7-4.7S18.4,19.1,21,19.1z M30.3,37.6c-0.5-4.7-4.5-8.3-9.3-8.3c-4.8,0-8.8,3.6-9.3,8.3v1.9
		c0,1.4,1.1,2.5,2.5,2.5h13.5c1.4,0,2.5-1.1,2.5-2.5L30.3,37.6z M35.1,22.5c1.9,0,3.5,1.6,3.5,3.5c0,1.9-1.6,3.5-3.5,3.5
		c-1.9,0-3.5-1.6-3.5-3.5C31.6,24.1,33.1,22.5,35.1,22.5z M6.9,22.5c1.9,0,3.5,1.6,3.5,3.5c0,1.9-1.6,3.5-3.5,3.5S3.4,27.9,3.4,26
		C3.4,24.1,5,22.5,6.9,22.5z M6.9,30.5c2.1,0,3.9,0.9,5.2,2.3c-0.9,1.4-1.5,2.9-1.7,4.7H1.8c-0.5,0-1-0.2-1.3-0.6
		c-0.3-0.4-0.4-0.9-0.2-1.4C1.1,32.5,3.8,30.5,6.9,30.5z M35.1,30.5c3.1,0,5.8,2.1,6.7,4.9c0.2,0.5,0.1,1-0.2,1.4
		c-0.3,0.4-0.8,0.6-1.3,0.6h-8.6c-0.2-1.7-0.8-3.3-1.7-4.7C31.2,31.4,33,30.5,35.1,30.5z M6.4,5.8l1.4,3.6c0,0.1,0.1,0.2,0.2,0.2
		l3.8,0.2c0.1,0,0.2,0.1,0.3,0.2c0,0.1,0,0.2-0.1,0.3l-3,2.4c-0.1,0.1-0.1,0.2-0.1,0.3l1,3.7c0,0.1,0,0.2-0.1,0.3
		c-0.1,0.1-0.2,0.1-0.3,0l-3.2-2.1c-0.1-0.1-0.2-0.1-0.3,0l-3.2,2.1c-0.1,0.1-0.2,0.1-0.3,0c-0.1-0.1-0.1-0.2-0.1-0.3l1-3.7
		c0-0.1,0-0.2-0.1-0.3l-3-2.4C0.2,10.2,0.2,10,0.2,9.9c0-0.1,0.1-0.2,0.3-0.2l3.8-0.2c0.1,0,0.2-0.1,0.2-0.2l1.4-3.6
		c0-0.1,0.1-0.2,0.3-0.2S6.4,5.7,6.4,5.8L6.4,5.8z M36.1,5.8l1.4,3.6c0,0.1,0.1,0.2,0.2,0.2l3.8,0.2c0.1,0,0.2,0.1,0.3,0.2
		c0,0.1,0,0.2-0.1,0.3l-3,2.4c-0.1,0.1-0.1,0.2-0.1,0.3l1,3.7c0,0.1,0,0.2-0.1,0.3c-0.1,0.1-0.2,0.1-0.3,0L36,14.8
		c-0.1-0.1-0.2-0.1-0.3,0l-3.2,2.1c-0.1,0.1-0.2,0.1-0.3,0c-0.1-0.1-0.1-0.2-0.1-0.3l1-3.7c0-0.1,0-0.2-0.1-0.3l-3-2.4
		c-0.1-0.1-0.1-0.2-0.1-0.3c0-0.1,0.1-0.2,0.3-0.2L34,9.6c0.1,0,0.2-0.1,0.2-0.2l1.4-3.6c0-0.1,0.1-0.2,0.3-0.2
		C35.9,5.6,36,5.7,36.1,5.8L36.1,5.8z"/>
</g>
</svg>
