<?xml version="1.0" encoding="utf-8"?>
<!-- Generator: Adobe Illustrator 26.5.0, SVG Export Plug-In . SVG Version: 6.00 Build 0)  -->
<svg version="1.1" id="Layer_1" xmlns="http://www.w3.org/2000/svg" xmlns:xlink="http://www.w3.org/1999/xlink" x="0px" y="0px"
	 width="42px" height="42px" viewBox="0 0 42 42" style="enable-background:new 0 0 42 42;" xml:space="preserve">
<style type="text/css">
	.st0{fill-rule:evenodd;clip-rule:evenodd;fill:#1B54AA;}
</style>
<path class="st0" d="M22.4,8.7c2.8,0.3,5.4,1.6,7.3,3.5c-1,0.4-2.1,0.8-3.3,1C25.7,11.5,24.4,9.5,22.4,8.7z M42,35.5h-6.5V42H42
	V35.5z M6.5,35.5H0V42h6.5V35.5z M6.5,0H0v6.5h6.5V0z M42,0h-6.5v6.5H42V0z M3.8,18.3c1.1,0.3,2,1.4,2,2.7c0,1.3-0.8,2.3-2,2.7
	c0.6,3.7,2.3,7.1,4.9,9.7s5.9,4.3,9.7,4.9c0.3-1.1,1.4-2,2.7-2c1.3,0,2.3,0.8,2.7,2c3.7-0.6,7.1-2.3,9.7-4.9s4.3-5.9,4.9-9.7
	c-1.1-0.3-2-1.4-2-2.7c0-1.3,0.8-2.3,2-2.7c-0.6-3.7-2.3-7.1-4.9-9.7s-5.9-4.3-9.7-4.9c-0.3,1.1-1.4,2-2.7,2c-1.3,0-2.3-0.8-2.7-2
	c-3.7,0.6-7.1,2.3-9.7,4.9C6.1,11.2,4.3,14.6,3.8,18.3L3.8,18.3z M2.5,23.8c0.6,4,2.5,7.7,5.3,10.4s6.4,4.7,10.4,5.3
	c0.2,1.4,1.4,2.4,2.8,2.4s2.6-1,2.8-2.4c4-0.6,7.7-2.5,10.4-5.3c2.8-2.8,4.7-6.4,5.3-10.4c1.4-0.2,2.4-1.4,2.4-2.8s-1-2.6-2.4-2.8
	c-0.6-4-2.5-7.7-5.3-10.4C31.4,5,27.8,3.1,23.8,2.5c-0.2-1.4-1.4-2.4-2.8-2.4s-2.6,1-2.8,2.4c-4,0.6-7.7,2.5-10.4,5.3
	s-4.7,6.4-5.3,10.4c-1.4,0.2-2.4,1.4-2.4,2.8S1.2,23.6,2.5,23.8L2.5,23.8z M30.6,13.3c-1.1,0.5-2.4,0.9-3.8,1.2
	c0.6,1.7,0.9,3.7,1,5.9h5.5C33.2,17.7,32.2,15.2,30.6,13.3z M26.6,20.4h-5v-5.3c1.4,0,2.8-0.2,4-0.4C26.2,16.4,26.5,18.3,26.6,20.4
	L26.6,20.4z M21.6,13.9c1.2,0,2.5-0.1,3.6-0.3c-0.7-1.5-1.9-3.4-3.6-3.8V13.9z M33.3,21.6c-0.1,2.7-1.2,5.3-2.8,7.3
	c-1.1-0.5-2.3-0.9-3.7-1.2c0.6-1.8,1-3.8,1-6L33.3,21.6z M29.6,29.8c-1.9,1.9-4.4,3.1-7.2,3.4c1.4-0.5,2.6-1.8,3.5-3.5
	c0.1-0.3,0.3-0.6,0.4-0.9C27.6,29.1,28.7,29.4,29.6,29.8z M21.6,32.2v-4c1.2,0,2.4,0.1,3.5,0.3C25,28.8,25,29,24.9,29.1
	C24,30.8,22.8,32,21.6,32.2L21.6,32.2z M21.6,27.1v-5.4h5c-0.1,2.2-0.4,4.1-1,5.8C24.3,27.2,23,27.1,21.6,27.1z M19.6,33.3
	c-2.8-0.3-5.3-1.6-7.2-3.4c1-0.4,2.1-0.7,3.3-1C16.4,30.6,17.7,32.5,19.6,33.3L19.6,33.3z M11.5,28.9c-1.6-2-2.7-4.5-2.8-7.3h5.5
	c0.1,2.2,0.4,4.3,1,6C13.9,27.9,12.7,28.3,11.5,28.9z M15.4,21.6h5v5.4c-1.4,0-2.7,0.2-4,0.4C15.8,25.8,15.5,23.8,15.4,21.6z
	 M20.4,28.3v4c-1.7-0.4-2.8-2.2-3.5-3.6C18,28.4,19.2,28.3,20.4,28.3L20.4,28.3z M8.7,20.4c0.1-2.7,1.1-5.2,2.7-7.1
	c1.1,0.5,2.4,0.9,3.8,1.2c-0.6,1.7-0.9,3.7-1,5.9L8.7,20.4L8.7,20.4z M12.3,12.3c1.9-1.9,4.5-3.2,7.3-3.5c-1.9,0.7-3.2,2.8-4,4.6
	C14.3,13.1,13.2,12.7,12.3,12.3z M20.4,9.8v4.1c-1.2,0-2.5-0.1-3.6-0.3C17.5,12,18.7,10.2,20.4,9.8z M20.4,15.1v5.3h-5
	c0.1-2.1,0.4-4,1-5.7C17.6,14.9,19,15.1,20.4,15.1z"/>
</svg>
