<?xml version="1.0" encoding="utf-8"?>
<!-- Generator: Adobe Illustrator 26.5.0, SVG Export Plug-In . SVG Version: 6.00 Build 0)  -->
<svg version="1.1" id="Capa_1" xmlns="http://www.w3.org/2000/svg" xmlns:xlink="http://www.w3.org/1999/xlink" x="0px" y="0px"
	 width="42px" height="42px" viewBox="0 0 42 42" style="enable-background:new 0 0 42 42;" xml:space="preserve">
<style type="text/css">
	.st0{fill:#1B54AA;}
</style>
<g>
	<path class="st0" d="M28,21.1l1.7-1.7l-1.8-1.8c0.8-1.1,1.4-2.5,1.6-3.9h2.6v-2.5h-2.6c-0.2-1.5-0.8-2.8-1.6-3.9l1.8-1.8L28,3.6
		l-1.8,1.8C25,4.6,23.7,4,22.2,3.8V1.2h-2.5v2.6C18.3,4,17,4.6,15.8,5.4L14,3.6l-1.7,1.7l1.8,1.8c-0.8,1.1-1.4,2.5-1.6,3.9H9.9v2.5
		h2.6c0.2,1.5,0.8,2.8,1.6,3.9l-1.8,1.8l1.7,1.7l1.8-1.8c1.1,0.8,2.5,1.4,3.9,1.6v2.6h2.5v-2.6c1.5-0.2,2.8-0.8,3.9-1.6L28,21.1z
		 M21,16.1c-2,0-3.7-1.7-3.7-3.7S19,8.6,21,8.6c2,0,3.7,1.7,3.7,3.7S23,16.1,21,16.1z"/>
	<path class="st0" d="M4.9,25.7v-9.6c0-2-1.7-3.7-3.7-3.7H0v16.4l6.2,6.2v5.9h9.9v-10l-6.9-6.9C7.6,22.3,4.9,23.5,4.9,25.7L4.9,25.7
		z"/>
	<path class="st0" d="M40.8,12.4c-2,0-3.7,1.7-3.7,3.7v9.6c0-2.2-2.7-3.3-4.2-1.7l-6.9,6.9v10h9.9v-5.9l6.2-6.2V12.4L40.8,12.4z"/>
</g>
</svg>
