<?xml version="1.0" encoding="utf-8"?>
<!-- Generator: Adobe Illustrator 26.5.0, SVG Export Plug-In . SVG Version: 6.00 Build 0)  -->
<svg version="1.1" id="Capa_1" xmlns="http://www.w3.org/2000/svg" xmlns:xlink="http://www.w3.org/1999/xlink" x="0px" y="0px"
	 width="42px" height="42px" viewBox="0 0 42 42" style="enable-background:new 0 0 42 42;" xml:space="preserve">
<style type="text/css">
	.st0{fill:#1B54AA;}
</style>
<g>
	<path class="st0" d="M26.7,0.7v5.8h5.8L26.7,0.7z"/>
	<path class="st0" d="M23.7,30.6H14c-0.7,0-1.2-0.6-1.2-1.2s0.6-1.2,1.2-1.2h9.4c0-1.1,0.2-2.2,0.6-3.2H14c-0.7,0-1.2-0.6-1.2-1.2
		c0-0.7,0.6-1.2,1.2-1.2h11.3c1.8-2.4,4.7-4,7.9-4V9h-7.8c-0.7,0-1.2-0.6-1.2-1.2V0H2.5C1.9,0,1.3,0.6,1.3,1.2v39.5
		c0,0.7,0.6,1.2,1.2,1.2h29.5c0.7,0,1.2-0.6,1.2-1.2v-2.6C28.7,38.1,24.8,34.9,23.7,30.6z M14,5.6h6.6c0.7,0,1.2,0.6,1.2,1.2
		s-0.6,1.2-1.2,1.2H14c-0.7,0-1.2-0.6-1.2-1.2S13.3,5.6,14,5.6z M14,11.3h12.3c0.7,0,1.2,0.6,1.2,1.2s-0.6,1.2-1.2,1.2H14
		c-0.7,0-1.2-0.6-1.2-1.2S13.3,11.3,14,11.3z M14,16.9h12.3c0.7,0,1.2,0.6,1.2,1.2c0,0.7-0.6,1.2-1.2,1.2H14c-0.7,0-1.2-0.6-1.2-1.2
		C12.8,17.4,13.3,16.9,14,16.9z M9.1,36.2H7.5c-0.7,0-1.2-0.6-1.2-1.2s0.6-1.2,1.2-1.2h1.6c0.7,0,1.2,0.6,1.2,1.2S9.8,36.2,9.1,36.2
		z M9.1,30.6H7.5c-0.7,0-1.2-0.6-1.2-1.2s0.6-1.2,1.2-1.2h1.6c0.7,0,1.2,0.6,1.2,1.2S9.8,30.6,9.1,30.6z M9.1,25H7.5
		c-0.7,0-1.2-0.6-1.2-1.2s0.6-1.2,1.2-1.2h1.6c0.7,0,1.2,0.6,1.2,1.2S9.8,25,9.1,25z M9.1,19.3H7.5c-0.7,0-1.2-0.6-1.2-1.2
		s0.6-1.2,1.2-1.2h1.6c0.7,0,1.2,0.6,1.2,1.2S9.8,19.3,9.1,19.3z M9.1,13.7H7.5c-0.7,0-1.2-0.6-1.2-1.2s0.6-1.2,1.2-1.2h1.6
		c0.7,0,1.2,0.6,1.2,1.2S9.8,13.7,9.1,13.7z M9.1,8.1H7.5c-0.7,0-1.2-0.6-1.2-1.2s0.6-1.2,1.2-1.2h1.6c0.7,0,1.2,0.6,1.2,1.2
		S9.8,8.1,9.1,8.1z M19.8,36.2H14c-0.7,0-1.2-0.6-1.2-1.2s0.6-1.2,1.2-1.2h5.7c0.7,0,1.2,0.6,1.2,1.2S20.4,36.2,19.8,36.2z"/>
	<path class="st0" d="M33.3,20.9c-4.1,0-7.4,3.3-7.4,7.4s3.3,7.4,7.4,7.4s7.4-3.3,7.4-7.4S37.4,20.9,33.3,20.9z M36.8,27.4l-3.5,3.5
		c-0.5,0.5-1.3,0.5-1.7,0l-1.7-1.7c-0.5-0.5-0.5-1.3,0-1.7c0.5-0.5,1.3-0.5,1.7,0l0.9,0.9l2.6-2.6c0.5-0.5,1.3-0.5,1.7,0
		C37.3,26.2,37.3,27,36.8,27.4L36.8,27.4z"/>
</g>
</svg>
