<?xml version="1.0" encoding="utf-8"?>
<!-- Generator: Adobe Illustrator 26.5.0, SVG Export Plug-In . SVG Version: 6.00 Build 0)  -->
<svg version="1.1" id="Layer_1" xmlns="http://www.w3.org/2000/svg" xmlns:xlink="http://www.w3.org/1999/xlink" x="0px" y="0px"
	 width="42px" height="42px" viewBox="0 0 42 42" style="enable-background:new 0 0 42 42;" xml:space="preserve">
<style type="text/css">
	.st0{fill:#1B54AA;}
</style>
<path class="st0" d="M42,16.1C42,7.2,34.8,0,25.9,0c-7,0-13,4.5-15.2,10.8c-2.3,0.8-4.3,2.1-6.1,3.8c-3,3-4.7,7.1-4.7,11.4
	c0,4.3,1.7,8.3,4.7,11.4c3,3,7.1,4.7,11.4,4.7s8.3-1.7,11.4-4.7c1.8-1.8,3-3.9,3.8-6.1C37.5,29,42,23.1,42,16.1z M14.8,39.5
	c-1.6-0.2-3.1-0.6-4.6-1.3l8.1-8.1c1.3,0.7,2.7,1.3,4.2,1.6L14.8,39.5z M20.1,28.3l8.2-8.2c0.7,1.5,1.1,3,1.3,4.6l-4.9,4.9
	C23,29.4,21.5,29,20.1,28.3z M15,24.1l9.1-9.1c0.6,0.4,1.1,0.9,1.6,1.3c0.5,0.5,0.9,1,1.3,1.6L17.9,27C16.8,26.2,15.8,25.2,15,24.1z
	 M2.5,27.2l7.7-7.7c0.3,1.5,0.9,2.9,1.6,4.2l-8.1,8.1C3.1,30.4,2.7,28.8,2.5,27.2z M13.7,12.5l-1.2,1.2c0.1-0.3,0.1-0.7,0.2-1
	C13.1,12.7,13.4,12.6,13.7,12.5z M12.4,17.4l4.9-4.9c1.6,0.2,3.1,0.6,4.6,1.3l-8.3,8.3C13,20.5,12.6,19,12.4,17.4z M29.4,28.3
	c-0.1,0.3-0.1,0.7-0.2,1c-0.3,0.1-0.6,0.1-1,0.2L29.4,28.3z M6.4,16.3c1.1-1.1,2.3-1.9,3.6-2.6c-0.1,0.8-0.2,1.5-0.2,2.3
	c0,0.1,0,0.2,0,0.3l-7.2,7.2C3.1,20.9,4.4,18.3,6.4,16.3z M5.1,34l8.1-8.1c0.8,1.1,1.8,2.1,2.9,2.9L8,36.9c-0.6-0.4-1.1-0.9-1.6-1.3
	C5.9,35.1,5.5,34.5,5.1,34z M25.7,35.6c-2,2-4.5,3.3-7.3,3.8l7.2-7.2c0.1,0,0.2,0,0.3,0c0.8,0,1.6-0.1,2.3-0.2
	C27.6,33.3,26.8,34.5,25.7,35.6z"/>
</svg>
