<?xml version="1.0" encoding="utf-8"?>
<!-- Generator: Adobe Illustrator 26.5.0, SVG Export Plug-In . SVG Version: 6.00 Build 0)  -->
<svg version="1.1" id="Layer_1" xmlns="http://www.w3.org/2000/svg" xmlns:xlink="http://www.w3.org/1999/xlink" x="0px" y="0px"
	 width="400px" height="310.6px" viewBox="0 0 400 310.6" style="enable-background:new 0 0 400 310.6;" xml:space="preserve">
<style type="text/css">
	.st0{opacity:0.6;}
	.st1{fill:#FBC343;}
	.st2{fill:#9490E6;}
	.st3{fill:#8CBFBE;}
	.st4{fill:#708CD5;}
	.st5{fill:#EE6F57;}
	.st6{fill:#D3D3D3;}
	.st7{fill:#102048;}
	.st8{fill:#F9B384;}
	.st9{fill:#6F3428;}
	.st10{fill:#E28B6D;}
	.st11{fill:#1F3C88;}
	.st12{opacity:0.6;fill:#102048;}
	.st13{fill:#0C1836;}
	.st14{fill:#FFFFFF;}
	.st15{opacity:0.4;fill:#FC8879;}
	.st16{opacity:0.4;}
	.st17{opacity:0.3;fill:#1F3C88;}
	.st18{fill:none;}
	.st19{fill:#2D1510;}
	.st20{fill:#BB9132;}
	.st21{opacity:0.3;fill:#BB9132;}
	.st22{opacity:0.9;fill:#FFFFFF;}
	.st23{opacity:0.3;}
</style>
<g class="st0">
	<g>
		<g>
			<g>
				<path class="st1" d="M130.2,151.1c0,0,0.5,0,1.2,0c0.4,0,0.9,0,1.1,0c0.2,0,0.3,0,0.3,0s-0.1,0.8,0,1.8c0,0.6,0.1,1.3,0.5,1.8
					c0.1,0.4,0.3,0.7,0.5,1c0.1,0.1,0,0.3-0.1,0.3c-0.4,0.1-0.8,0.1-1.1,0.2c-0.7,0.3-0.9,0.6-1.1,0c-0.1-0.2-0.2-0.4-0.3-0.7
					c-0.1-0.2-0.1-0.5-0.2-0.7c-0.2-0.5-0.4-1.2-0.5-1.8C130.2,151.9,130.2,151.1,130.2,151.1z"/>
			</g>
		</g>
	</g>
	<g>
		<g>
			<g>
				<path class="st2" d="M128,130.1c0,0,0.3,0.5,0.6,1.1c0.1,0.1,0.2,0.3,0.2,0.4c0.1,0.2,0.1,0.2,0.1,0.2s0.6-0.4,1.5-0.9
					c0.2-0.1,0.6-0.2,1,0.1c0.4-0.1,0.7-0.1,1,0c0.1,0,0.3-0.1,0.2-0.3c-0.1-0.4-0.2-0.7-0.3-1.1c0.1-0.4,0.3-0.6-0.2-0.4
					c-0.2,0-0.4,0-0.8,0c-0.2,0-0.5,0.1-0.7,0.2c-0.3-0.1-0.7-0.1-1-0.1C128.7,129.8,128,130.1,128,130.1z"/>
			</g>
		</g>
	</g>
	<g>
		<g>
			<g>
				<path class="st3" d="M54.1,169.2c0,0,0.5,0.2,1.2,0.4c0.6,0.2,1.3,0.5,1.7,0.6c0.2,0.1,0.2,0.1,0.2,0.1s-0.3,0.7-0.6,1.7
					c-0.2,0.8-0.5,1.9-0.4,2.8c0,0.4,0,0.7,0.1,1.1c0,0.1-0.1,0.3-0.2,0.3c-0.4-0.1-0.7-0.1-1.1-0.2c-1.1-0.1-1.6,0-1.7-0.6
					c-0.1-0.2-0.1-0.5-0.1-0.8c0-0.2,0-0.5,0-0.8c0-0.9,0.2-2,0.4-2.8C53.9,169.9,54.1,169.2,54.1,169.2z"/>
			</g>
		</g>
	</g>
	<g>
		<g>
			<g>
				<path class="st4" d="M42.2,123.9c0,0-0.3,0.4-0.8,1c-0.3,0.4-0.7,1-0.9,1.2c-0.1,0.1-0.2,0.2-0.2,0.2s0.6,0.4,1.4,1.1
					c0.5,0.4,1,1.1,1.3,1.8c0.2,0.3,0.3,0.7,0.4,1c0,0.1,0.2,0.2,0.3,0.1c0.3-0.3,0.6-0.5,0.8-0.7c0.8-0.5,1.2-0.7,0.9-1.2
					c-0.1-0.2-0.2-0.4-0.3-0.7c-0.1-0.2-0.3-0.4-0.4-0.6c-0.3-0.6-0.8-1.3-1.3-1.8C42.7,124.4,42.2,123.9,42.2,123.9z"/>
			</g>
		</g>
	</g>
	<g>
		<g>
			<g>
				<path class="st1" d="M88.4,61.8c0,0,0.5,0.1,1.2,0.2c0.3,0.1,0.7,0.1,0.9,0.1c0.2,0,0.3,0,0.3,0S90.5,63,90.4,64
					c0,0.4,0,1,0.3,1.5c0.1,0.4,0.2,0.7,0.3,1c0.1,0.1,0,0.3-0.2,0.3c-0.4,0-0.8,0-1.1,0c-0.6,0.2-0.8,0.4-0.9-0.1
					c-0.1-0.2-0.2-0.4-0.2-0.8c0-0.2-0.1-0.5-0.1-0.8c-0.2-0.5-0.3-1-0.3-1.5C88.3,62.6,88.4,61.8,88.4,61.8z"/>
			</g>
		</g>
	</g>
	<g>
		<g>
			<g>
				<path class="st1" d="M76.2,79.6c0,0-0.5,0.1-1.2,0.2c-0.3,0.1-0.7,0.1-0.9,0.1c-0.2,0-0.3,0-0.3,0s0.2,0.7,0.3,1.8
					c0,0.4,0,1-0.3,1.5c-0.1,0.4-0.2,0.7-0.3,1c-0.1,0.1,0,0.3,0.2,0.3c0.4,0,0.8,0,1.1,0c0.6,0.2,0.8,0.4,0.9-0.1
					c0.1-0.2,0.2-0.4,0.2-0.8c0-0.2,0.1-0.5,0.1-0.8c0.2-0.5,0.3-1,0.3-1.5C76.3,80.4,76.2,79.6,76.2,79.6z"/>
			</g>
		</g>
	</g>
	<g>
		<g>
			<g>
				<path class="st1" d="M156.5,48.9c0,0-0.5,0.1-1.2,0.2c-0.2,0-0.4,0.1-0.4,0.1c-0.2,0-0.3,0-0.3,0s0.2,0.7,0.3,1.8
					c0,0.2,0,0.6-0.4,0.9c-0.1,0.4-0.2,0.7-0.3,1c-0.1,0.1,0,0.3,0.2,0.3c0.4,0,0.8,0,1.1,0c0.3,0.2,0.5,0.5,0.4-0.1
					c0.1-0.2,0.1-0.4,0.2-0.8c0-0.2,0.1-0.5,0.1-0.8c0.2-0.3,0.3-0.6,0.4-0.9C156.6,49.7,156.5,48.9,156.5,48.9z"/>
			</g>
		</g>
	</g>
	<g>
		<g>
			<g>
				<path class="st5" d="M199.5,48.8c0,0,0.5,0,1.2,0c0.2,0,0.4,0,0.5,0c0.2,0,0.3,0,0.3,0s-0.1,0.8-0.1,1.8c0,0.3,0.1,0.7,0.5,1
					c0.1,0.4,0.3,0.7,0.4,1c0.1,0.1,0,0.3-0.1,0.3c-0.4,0-0.8,0.1-1.1,0.2c-0.3,0.3-0.5,0.5-0.5,0c-0.1-0.2-0.2-0.4-0.3-0.7
					c-0.1-0.2-0.1-0.5-0.2-0.8c-0.2-0.3-0.4-0.7-0.5-1C199.5,49.5,199.5,48.8,199.5,48.8z"/>
			</g>
		</g>
	</g>
	<g>
		<g>
			<g>
				<path class="st3" d="M171.5,70.5c0,0,0.1-0.5,0.2-1.2c0-0.2,0.1-0.6,0.1-0.7c0-0.2,0-0.3,0-0.3s0.7,0.2,1.7,0.4
					c0.3,0,0.8,0,1.2-0.3c0.4-0.1,0.7-0.2,1-0.3c0.1-0.1,0.3,0,0.3,0.2c0,0.4,0,0.8,0,1.1c0.2,0.5,0.4,0.7-0.1,0.7
					c-0.2,0.1-0.4,0.1-0.8,0.2c-0.2,0-0.5,0.1-0.7,0.1c-0.4,0.2-0.9,0.3-1.2,0.3C172.3,70.5,171.5,70.5,171.5,70.5z"/>
			</g>
		</g>
	</g>
	<g>
		<g>
			<g>
				<path class="st3" d="M113.6,84.4c0,0-0.5-0.1-1.2-0.3c-0.3-0.1-0.8-0.2-1-0.3c-0.2,0-0.3-0.1-0.3-0.1s-0.1,0.8-0.4,1.8
					c-0.1,0.5-0.4,1.1-0.9,1.5c-0.2,0.3-0.4,0.6-0.7,0.8c-0.1,0.1-0.1,0.3,0,0.4c0.4,0.2,0.7,0.3,1,0.5c0.5,0.5,0.7,0.8,1,0.3
					c0.2-0.1,0.3-0.3,0.5-0.6c0.1-0.2,0.3-0.4,0.4-0.7c0.3-0.4,0.7-1,0.9-1.5C113.3,85.1,113.6,84.4,113.6,84.4z"/>
			</g>
		</g>
	</g>
	<g>
		<g>
			<g>
				<path class="st1" d="M238.3,60.7c0,0-0.2,0.5-0.4,1.2c-0.1,0.4-0.3,1-0.4,1.2c-0.1,0.2-0.1,0.3-0.1,0.3s-0.7-0.3-1.6-0.7
					c-0.5-0.2-1.1-0.3-1.7-0.1c-0.4,0-0.7,0-1,0.1c-0.1,0-0.3-0.1-0.3-0.2c0.1-0.4,0.1-0.8,0.2-1.1c0-0.9-0.1-1.2,0.4-1.2
					c0.2-0.1,0.4-0.1,0.8-0.1c0.2,0,0.5,0,0.7,0.1c0.5,0,1.2,0,1.7,0.1C237.6,60.5,238.3,60.7,238.3,60.7z"/>
			</g>
		</g>
	</g>
	<g>
		<g>
			<g>
				<path class="st5" d="M159.8,103c0,0-0.2,0.5-0.4,1.2c-0.1,0.4-0.3,1-0.4,1.2c-0.1,0.2-0.1,0.3-0.1,0.3s-0.7-0.3-1.6-0.7
					c-0.5-0.2-1.1-0.3-1.7-0.1c-0.4,0-0.7,0-1,0.1c-0.1,0-0.3-0.1-0.3-0.2c0.1-0.4,0.1-0.8,0.2-1.1c0-0.9-0.1-1.2,0.4-1.2
					c0.2-0.1,0.4-0.1,0.8-0.1c0.2,0,0.5,0,0.7,0.1c0.5,0,1.2,0,1.7,0.1C159.1,102.8,159.8,103,159.8,103z"/>
			</g>
		</g>
	</g>
	<g>
		<g>
			<g>
				<path class="st5" d="M283.3,91.2c0,0-0.2,0.5-0.4,1.2c-0.1,0.4-0.3,1-0.4,1.2c-0.1,0.2-0.1,0.3-0.1,0.3s-0.7-0.3-1.6-0.7
					c-0.5-0.2-1.1-0.3-1.7-0.1c-0.4,0-0.7,0-1,0.1c-0.1,0-0.3-0.1-0.3-0.2c0.1-0.4,0.1-0.8,0.2-1.1c0-0.9-0.1-1.2,0.4-1.2
					c0.2-0.1,0.4-0.1,0.8-0.1c0.2,0,0.5,0,0.7,0.1c0.5,0,1.2,0,1.7,0.1C282.6,91,283.3,91.2,283.3,91.2z"/>
			</g>
		</g>
	</g>
	<g>
		<g>
			<g>
				<path class="st6" d="M218.2,99.8c0,0,0.4-0.3,1-0.8c0.4-0.3,0.8-0.7,1-0.8c0.1-0.1,0.2-0.2,0.2-0.2s0.4,0.7,1,1.5
					c0.4,0.5,0.9,1,1.5,1.2c0.3,0.2,0.6,0.4,0.9,0.5c0.1,0,0.2,0.3,0.1,0.3c-0.3,0.3-0.5,0.6-0.7,0.8c-0.5,0.8-0.5,1.1-1,0.8
					c-0.2-0.1-0.4-0.2-0.7-0.4c-0.2-0.1-0.4-0.3-0.6-0.5c-0.5-0.3-1.1-0.8-1.6-1.2C218.7,100.4,218.2,99.8,218.2,99.8z"/>
			</g>
		</g>
	</g>
	<g>
		<g>
			<g>
				<path class="st2" d="M217.5,51.3c0,0-0.5,0-1.2,0.1c-0.3,0-0.6,0-0.7,0.1c-0.2,0-0.3,0-0.3,0s0.1,0.8,0.2,1.8
					c0,0.4-0.1,0.9-0.4,1.3c-0.1,0.4-0.2,0.7-0.4,1c-0.1,0.1,0,0.3,0.1,0.3c0.4,0,0.8,0.1,1.1,0.1c0.5,0.3,0.7,0.5,0.7-0.1
					c0.1-0.2,0.2-0.4,0.3-0.8c0.1-0.2,0.1-0.5,0.1-0.8c0.2-0.4,0.4-0.9,0.5-1.3C217.4,52.1,217.5,51.3,217.5,51.3z"/>
			</g>
		</g>
	</g>
	<g>
		<g>
			<g>
				<path class="st1" d="M197.7,24.5c0,0,0.5-0.5,1.1-1.1c0,0,0.1-0.1,0.1-0.1c0.1-0.1,0.2-0.2,0.2-0.2s0.6,0.8,1.5,1.7
					c0,0,0.2,0,0.6-0.3c0.4,0.2,0.8,0.4,1.2,0.5c0.2,0,0.3,0.3,0.2,0.4c-0.3,0.4-0.6,0.8-0.8,1.1l-0.1,0.1c-0.2-0.1-0.5-0.2-0.9-0.4
					c-0.2-0.1-0.5-0.3-0.8-0.5c-0.2,0.2-0.4,0.3-0.6,0.4C198.4,25.2,197.7,24.5,197.7,24.5z"/>
			</g>
		</g>
	</g>
	<g>
		<g>
			<g>
				<path class="st4" d="M239.6,37.5c0,0-0.3,0.5-0.6,1.1c-0.2,0.3-0.4,0.7-0.5,0.8c-0.1,0.1-0.1,0.2-0.1,0.2s-0.6-0.5-1.5-1
					c-0.3-0.2-0.8-0.4-1.3-0.2c-0.4-0.1-0.7-0.1-1-0.1c-0.1,0-0.3-0.2-0.2-0.3c0.2-0.4,0.3-0.7,0.4-1c0-0.7-0.1-1,0.5-0.8
					c0.2,0,0.4,0,0.8,0.1c0.2,0.1,0.4,0.1,0.7,0.2c0.4,0,0.9,0.1,1.3,0.2C239,37.1,239.6,37.5,239.6,37.5z"/>
			</g>
		</g>
	</g>
	<g>
		<g>
			<g>
				<path class="st5" d="M327.8,51c0,0-0.6-0.5-1.4-1c-0.1-0.1-0.2-0.2-0.3-0.2c-0.2-0.1-0.3-0.2-0.3-0.2s-0.5,1-1.3,2.2
					c-0.1,0.1-0.4,0.2-0.9,0c-0.4,0.3-0.8,0.6-1.3,0.7c-0.2,0.1-0.3,0.4-0.1,0.5c0.4,0.4,0.8,0.8,1.1,1.1c-0.1,0.5-0.2,0.8,0.3,0.2
					c0.3-0.1,0.6-0.3,0.9-0.6c0.2-0.2,0.5-0.4,0.8-0.7c0.4,0.1,0.7,0,0.9,0C327.1,51.8,327.8,51,327.8,51z"/>
			</g>
		</g>
	</g>
	<g>
		<g>
			<g>
				<path class="st3" d="M297,62.8c0,0,0.5-0.2,1.1-0.5c0.2-0.1,0.5-0.2,0.6-0.3c0.2-0.1,0.2-0.1,0.2-0.1s0.2,0.7,0.6,1.7
					c0.1,0.3,0.4,0.6,0.9,0.7c0.2,0.3,0.5,0.5,0.8,0.7c0.1,0.1,0.1,0.3,0,0.4c-0.3,0.2-0.6,0.4-0.9,0.6c-0.2,0.4-0.3,0.7-0.6,0.3
					c-0.2-0.1-0.3-0.3-0.6-0.5c-0.1-0.2-0.3-0.4-0.5-0.6c-0.3-0.2-0.6-0.5-0.9-0.7C297.4,63.5,297,62.8,297,62.8z"/>
			</g>
		</g>
	</g>
	<g>
		<g>
			<g>
				<path class="st1" d="M296.9,90.4c0,0-0.5-0.1-1.2-0.1c-0.2,0-0.6-0.1-0.7-0.1c-0.2,0-0.3,0-0.3,0s0,0.8-0.1,1.8
					c0,0.4-0.2,0.8-0.6,1.1c-0.2,0.3-0.3,0.7-0.5,0.9c-0.1,0.1,0,0.3,0.1,0.4c0.4,0.1,0.7,0.2,1,0.3c0.4,0.3,0.5,0.6,0.7,0.1
					c0.1-0.2,0.2-0.4,0.4-0.7c0.1-0.2,0.2-0.5,0.3-0.7c0.3-0.3,0.5-0.8,0.6-1.1C296.8,91.1,296.9,90.4,296.9,90.4z"/>
			</g>
		</g>
	</g>
	<g>
		<g>
			<g>
				<path class="st3" d="M270.5,118.8c0,0,0.5,0.2,1.2,0.4c0.2,0.1,0.6,0.2,0.7,0.2c0.2,0,0.3,0.1,0.3,0.1s-0.3,0.7-0.5,1.7
					c-0.1,0.4-0.1,0.8,0.2,1.3c0,0.4,0.1,0.7,0.2,1.1c0,0.1-0.1,0.3-0.2,0.3c-0.4-0.1-0.8-0.1-1.1-0.1c-0.5,0.2-0.7,0.4-0.7-0.2
					c-0.1-0.2-0.1-0.5-0.1-0.8c0-0.2,0-0.5,0-0.8c-0.1-0.4-0.2-0.9-0.2-1.3C270.3,119.5,270.5,118.8,270.5,118.8z"/>
			</g>
		</g>
	</g>
	<g>
		<g>
			<g>
				<path class="st1" d="M249.7,133.7c0,0,0.5-0.1,1.2-0.3c0.4-0.1,0.8-0.2,1-0.3c0.2,0,0.3-0.1,0.3-0.1s0.1,0.8,0.4,1.8
					c0.1,0.5,0.4,1.1,0.9,1.6c0.2,0.3,0.4,0.6,0.7,0.8c0.1,0.1,0.1,0.3,0,0.4c-0.4,0.2-0.7,0.3-1,0.5c-0.6,0.5-0.7,0.8-1,0.3
					c-0.2-0.1-0.3-0.3-0.5-0.6c-0.1-0.2-0.2-0.4-0.4-0.7c-0.3-0.4-0.7-1.1-0.9-1.6C249.9,134.5,249.7,133.7,249.7,133.7z"/>
			</g>
		</g>
	</g>
	<g>
		<g>
			<g>
				<path class="st5" d="M362.3,107.9c0,0-0.5-0.3-1.1-0.6c-0.4-0.3-1-0.6-1.3-0.8c-0.1-0.1-0.2-0.1-0.2-0.1s-0.3,0.7-0.8,1.6
					c-0.3,0.6-0.8,1.3-1.5,1.7c-0.3,0.2-0.6,0.5-0.8,0.6c-0.1,0.1-0.2,0.3-0.1,0.4c0.3,0.3,0.6,0.5,0.8,0.7c0.6,0.7,0.8,1.1,1.3,0.8
					c0.2-0.1,0.4-0.2,0.6-0.5c0.2-0.1,0.3-0.3,0.5-0.6c0.5-0.5,1.1-1.1,1.5-1.7C361.9,108.6,362.3,107.9,362.3,107.9z"/>
			</g>
		</g>
	</g>
	<g>
		<g>
			<g>
				<path class="st1" d="M365.4,153.8c0,0,0.4-0.3,1-0.7c0.5-0.3,1.1-0.8,1.4-1c0.1-0.1,0.2-0.2,0.2-0.2s0.3,0.7,0.9,1.6
					c0.4,0.6,1,1.4,1.7,1.9c0.3,0.2,0.6,0.4,0.9,0.5c0.1,0.1,0.2,0.3,0.1,0.4c-0.3,0.3-0.6,0.5-0.8,0.8c-0.7,0.9-0.9,1.3-1.4,1
					c-0.2-0.1-0.4-0.2-0.6-0.4c-0.2-0.1-0.4-0.3-0.6-0.5c-0.6-0.5-1.2-1.2-1.8-1.8C365.8,154.5,365.4,153.8,365.4,153.8z"/>
			</g>
		</g>
	</g>
	<g>
		<g>
			<g>
				<path class="st3" d="M338.8,126.3c0,0,0.4-0.3,1-0.7c0.4-0.3,1-0.8,1.3-1c0.1-0.1,0.2-0.2,0.2-0.2s0.4,0.7,1,1.5
					c0.4,0.6,1,1.3,1.7,1.7c0.3,0.2,0.6,0.4,0.9,0.5c0.1,0.1,0.2,0.3,0.1,0.4c-0.3,0.3-0.5,0.6-0.8,0.8c-0.6,0.8-0.8,1.3-1.3,1
					c-0.2-0.1-0.4-0.2-0.7-0.4c-0.2-0.1-0.4-0.3-0.6-0.5c-0.6-0.4-1.2-1.1-1.7-1.6C339.3,126.9,338.8,126.3,338.8,126.3z"/>
			</g>
		</g>
	</g>
	<g>
		<g>
			<g>
				<path class="st1" d="M113.8,32.7c0,0,0.6,0.3,1.4,0.6c0.1,0,0.2,0.1,0.2,0.1c0.2,0.1,0.3,0.1,0.3,0.1s-0.4,0.9-0.9,2.1
					c0,0.1,0,0.4,0.4,0.7c0,0.5,0,1,0.1,1.4c0,0.2-0.1,0.4-0.3,0.3c-0.5-0.1-0.9-0.2-1.3-0.3c-0.3,0.3-0.4,0.6-0.2-0.1
					c-0.1-0.3-0.1-0.6,0-1c0-0.3,0.1-0.6,0.1-1c-0.2-0.3-0.4-0.5-0.5-0.7C113.5,33.6,113.8,32.7,113.8,32.7z"/>
			</g>
		</g>
	</g>
	<g>
		<g>
			<g>
				<path class="st4" d="M124.7,48.9c0,0,0.6,0.4,1.4,0.8c0.2,0.1,0.3,0.2,0.4,0.2c0.2,0.1,0.3,0.2,0.3,0.2s-0.5,0.8-1.1,2
					c-0.1,0.2-0.1,0.6,0.2,1.1c-0.1,0.5-0.1,0.9,0,1.4c0,0.2-0.2,0.4-0.3,0.3c-0.5-0.2-0.9-0.3-1.3-0.5c-0.4,0.2-0.7,0.4-0.4-0.2
					c0-0.3,0-0.6,0.1-1c0-0.3,0.1-0.6,0.2-1c-0.1-0.4-0.2-0.8-0.2-1.1C124.3,49.8,124.7,48.9,124.7,48.9z"/>
			</g>
		</g>
	</g>
	<g>
		<g>
			<g>
				<path class="st4" d="M335.8,75.5c0,0,0.4-0.3,1-0.8c0.2-0.1,0.4-0.3,0.4-0.4c0.1-0.1,0.2-0.2,0.2-0.2s0.4,0.7,1,1.5
					c0.2,0.2,0.4,0.4,0.9,0.4c0.3,0.2,0.6,0.4,0.9,0.5c0.1,0,0.2,0.3,0.1,0.4c-0.3,0.3-0.5,0.6-0.7,0.8c-0.1,0.5-0.1,0.7-0.4,0.4
					c-0.2-0.1-0.4-0.2-0.7-0.4c-0.2-0.1-0.4-0.3-0.6-0.5c-0.3-0.1-0.7-0.2-0.9-0.4C336.3,76.1,335.8,75.5,335.8,75.5z"/>
			</g>
		</g>
	</g>
	<g>
		<g>
			<g>
				<path class="st3" d="M182.1,35.8c0,0,0.8,0,1.7,0.1c0.1,0,0.2,0,0.3,0c0.2,0,0.4,0,0.4,0s-0.1,1.1-0.2,2.6
					c0,0.2,0.2,0.4,0.7,0.6c0.1,0.5,0.3,1,0.6,1.4c0.1,0.2,0,0.5-0.2,0.5c-0.6,0.1-0.3,0.3-0.8,0.3c-0.2,0.4-1,0.6-1-0.2
					c-0.2-0.2-0.3-0.6-0.4-1.1c-0.1-0.3-0.2-0.7-0.2-1.1c-0.3-0.2-0.6-0.4-0.7-0.6C182.1,36.9,182.1,35.8,182.1,35.8z"/>
			</g>
		</g>
	</g>
	<g>
		<g>
			<g>
				<path class="st3" d="M212.4,35.6c0,0-0.8-0.1-1.7-0.2c-0.1,0-0.2,0-0.2,0c-0.2,0-0.4,0-0.4,0s0,1.1-0.2,2.5
					c0,0.2-0.2,0.3-0.8,0.4c-0.2,0.5-0.5,0.9-0.8,1.3c-0.1,0.2-0.1,0.4,0.1,0.5c0.6,0.2,0.8,0.2,1.2,0.4l0.5,0.1
					c0.2-0.2,0.4-0.5,0.6-1c0.1-0.3,0.3-0.6,0.4-1c0.3-0.1,0.6-0.3,0.8-0.4C212.2,36.7,212.4,35.6,212.4,35.6z"/>
			</g>
		</g>
	</g>
	<g>
		<g>
			<g>
				<path class="st2" d="M149.6,71.5c0,0-0.2,0.5-0.5,1.2c-0.1,0.2-0.2,0.5-0.3,0.7c-0.1,0.2-0.1,0.3-0.1,0.3s0.7,0.2,1.6,0.7
					c0.3,0.2,0.7,0.4,0.8,0.9c0.3,0.3,0.5,0.5,0.7,0.8c0.1,0.1,0.3,0.1,0.3,0c0.2-0.4,0.4-0.7,0.6-0.9c0.4-0.3,0.7-0.3,0.3-0.7
					c-0.1-0.2-0.3-0.4-0.5-0.6c-0.2-0.1-0.4-0.3-0.6-0.5c-0.2-0.4-0.6-0.7-0.8-1C150.2,71.9,149.6,71.5,149.6,71.5z"/>
			</g>
		</g>
	</g>
	<g>
		<g>
			<g>
				<path class="st5" d="M234.1,79.9c0,0-0.2,0.5-0.5,1.2c-0.1,0.2-0.2,0.5-0.3,0.7c-0.1,0.2-0.1,0.3-0.1,0.3s0.7,0.2,1.6,0.7
					c0.3,0.2,0.7,0.4,0.8,0.9c0.3,0.3,0.5,0.5,0.7,0.8c0.1,0.1,0.3,0.1,0.3,0c0.2-0.4,0.4-0.7,0.6-0.9c0.4-0.3,0.7-0.3,0.3-0.7
					c-0.1-0.2-0.3-0.4-0.5-0.6c-0.2-0.1-0.4-0.3-0.6-0.5c-0.2-0.4-0.6-0.7-0.8-1C234.8,80.2,234.1,79.9,234.1,79.9z"/>
			</g>
		</g>
	</g>
	<g>
		<g>
			<g>
				<path class="st4" d="M56,71.6c0,0,0.5-0.2,1.1-0.5c0.5-0.2,1.1-0.4,1.3-0.5c0.2-0.1,0.2-0.1,0.2-0.1s0.2,0.7,0.6,1.7
					c0.3,0.6,0.7,1.4,1.3,1.9c0.2,0.3,0.5,0.5,0.8,0.7c0.1,0.1,0.1,0.3,0,0.4c-0.4,0.2-0.7,0.4-0.9,0.6c-0.7,0.6-0.9,1-1.3,0.5
					c-0.2-0.1-0.3-0.3-0.6-0.6c-0.1-0.2-0.3-0.4-0.5-0.6c-0.5-0.5-0.9-1.3-1.3-1.9C56.4,72.3,56,71.6,56,71.6z"/>
			</g>
		</g>
	</g>
	<g>
		<g>
			<g>
				<path class="st1" d="M319.2,70.5c0,0,0.4-0.4,0.9-0.8c0.1-0.1,0.2-0.2,0.3-0.2c0.1-0.1,0.2-0.2,0.2-0.2s0.4,0.6,1.1,1.4
					c0.1,0.1,0.3,0.2,0.7,0.1c0.3,0.2,0.6,0.3,0.9,0.4c0.1,0,0.2,0.2,0.1,0.3c-0.3,0.3-0.5,0.6-0.7,0.9c0,0.4,0.1,0.6-0.3,0.2
					c-0.2-0.1-0.4-0.2-0.7-0.4c-0.2-0.1-0.4-0.3-0.6-0.5c-0.3,0-0.6,0-0.8-0.1C319.7,71,319.2,70.5,319.2,70.5z"/>
			</g>
		</g>
	</g>
	<g>
		<g>
			<g>
				<path class="st1" d="M28,147.3c0,0,0.5,0.3,1,0.7c0.6,0.4,1.5,1,1.8,1.3c0.1,0.1,0.2,0.2,0.2,0.2s-0.4,0.6-1,1.5
					c-0.5,0.9-1.1,2-1.3,3.1c-0.1,0.4-0.1,0.7-0.1,1.1c0,0.2-0.2,0.3-0.3,0.2c-0.4-0.2-0.7-0.3-1-0.5c-1.3-0.5-1.8-0.6-1.8-1.3
					c0-0.2,0-0.5,0.1-0.8c0.1-0.2,0.1-0.5,0.2-0.7c0.3-1,0.8-2.2,1.3-3.1C27.7,148,28,147.3,28,147.3z"/>
			</g>
		</g>
	</g>
</g>
<g>
	<path class="st7" d="M109.5,125.2c-5.3,4.5-27.7,13-28,13.2c-1.1,0.7-1.7,2-2.8,2.7c-1.2,0.8-2.7,1.4-4.1,1.5
		c-5.1,0.5-9.6-3.4-11.3-8.2c-1.8-5-0.3-11.9,4.7-14.2c4.1-1.8,6.9-1.6,6.9-1.6C72,95.1,83.3,90.9,85.1,90.8
		c5.2-7,13.4-2.6,14.2-1.1c4.4-1.1,8.2,8.6,3.3,11.4c0,0-0.1,0-0.1,0.1c0.2,5.5,0.8,9.5,5.7,11.4
		C113.5,114.7,114.9,120.7,109.5,125.2z"/>
	<g>
		<path class="st8" d="M58.1,89c0,0-7,2.1-7,2.1c-2.6-2.4-3.3-4.4-4.4-7.7c-0.4-1.3-2.1-6.5-0.8-6.9c0.5-0.1,1.3,0.4,1.8,1.3
			c-0.5-1.4-0.6-3-0.7-3.9c0-0.7,0.1-1.1,0.6-1.3c0.4-0.1,0.8,0.2,1.1,0.7c0-0.1,0.2-1.4,0.7-1.6c0.5-0.2,1.1,0.4,1.6,1.5
			c0.1,0.1,0.1,0.3,0.2,0.4c0-0.1,0-0.3,0-0.4c0.1-0.3,0.3-0.6,0.6-0.7c0.9-0.4,1.7,1.6,1.9,2.2c1,2.3,2,4.5,2.7,6.9
			c0.3,1.1,0.8,2.3,1,3.4C57.6,85.5,58.3,88.9,58.1,89z"/>
		<path class="st8" d="M57.6,81.1c0.4,2.9,0.1,5.2-0.5,5.3c-0.7,0.1-1.5-2.1-1.9-5c-0.4-2.9-0.6-5.1,0.5-5.3
			C56.6,75.9,57.2,78.3,57.6,81.1z"/>
	</g>
	<path class="st8" d="M71.2,110.8l-1.2,7h-8l-1.1-1.5l-6.1-8.1c-1.2-1.6-2.1-3.5-2.6-5.5l-3-14.4l8.5-2.3l3.8,12.2
		c0.7,2.2,1.8,4.2,3.4,5.9L71.2,110.8z"/>
	<g>
		<path class="st8" d="M124.8,81.6c0,0,6.5,2.1,6.5,2.1c1.9-2.8,2.7-6.5,3-9.8c0.1-1.3,0.6-6.5-0.7-6.6c-0.5,0-1.1,0.7-1.4,1.6
			c0.1-1.4,0-2.9-0.2-3.7c-0.1-0.6-0.4-1-0.8-1.1c-0.4-0.1-0.7,0.3-0.9,0.9c0-0.1-0.5-1.3-1-1.3c-0.5-0.1-0.9,0.6-1.2,1.8
			c0,0.1-0.1,0.3-0.1,0.5c0-0.1-0.1-0.2-0.1-0.3c-0.1-0.3-0.4-0.5-0.7-0.5c-0.9-0.1-1.2,1.8-1.3,2.4c-0.4,2.3-1,4.7-1.1,7
			c-0.1,1.1-0.1,2.3-0.1,3.4C124.7,78.3,124.6,81.6,124.8,81.6z"/>
		<path class="st8" d="M123.7,74.4c0.6,2.7,1.7,4.7,2.3,4.5s0.6-2.5,0-5.1c-0.6-2.7-1.2-4.8-2.3-4.5C122.8,69.5,123,71.7,123.7,74.4
			z"/>
	</g>
	<path class="st8" d="M115,104.4l4.3-6.9c0.5-0.9,1-1.8,1.3-2.8l4.1-16.9l8.8,0.7l-3.7,18.1c-0.1,0.8-0.4,1.6-0.7,2.3l-4.2,10.3
		l-5.7,2.6L115,104.4z"/>
	<g>
		<path class="st8" d="M116,242.6l-0.4,4.8l-2.8,37.6l-0.1,1.8l-8.7-1.4v-1.8c0,0,0,0,0,0l0-38.3c0-2.4-0.3-4.7-0.8-7
			c-2.5-10.8-10-43.3-9.5-44.1l16.5-1.7l5.4,41.1l0.1,0.9C116.2,237,116.3,239.8,116,242.6z"/>
		<path class="st9" d="M103.7,291.4c0.2,2.1,1.6,2.1,2.2,2.1c1.6,0,16.8,0.1,17,0c0,0,0-1.7-1.2-2.9c-0.9-0.9-8.2-5.2-8.8-5.6
			c-4.7,2.6-8.8-1.4-8.8-1.4S103.5,289.2,103.7,291.4z"/>
	</g>
	<g>
		<path class="st8" d="M100.7,194.9c0,0-7.1,29.6-15.2,40.7c-1,1.4-2.1,2.5-3.1,3.2c-2.3,1.6-5.4,0.9-8.9-1.5
			c-6.1-4.1-13.9-13.3-23-25.2c-0.4-0.5-0.8-1-1.2-1.6l3.4-6.2l4.5,1.6l18.1,16.2l6.9-29.4L100.7,194.9z"/>
		<path class="st9" d="M51.6,200.7c-1.7-1.2-2.6,0-3,0.4c-1,1.3-10.7,13.3-10.8,13.5c0,0,1.2,1.1,2.9,0.9c1.2-0.1,9.1-3.2,9.8-3.4
			c1.1-5.4,6.7-6.1,6.7-6.1S53.4,202,51.6,200.7z"/>
	</g>
	<path class="st10" d="M92.3,221.6c0.5-2,1.1-3.9,1.7-5.9c0.6-2,1.2-3.9,1.8-5.8l1.9-5.8c0.6-1.9,1.3-3.9,2-5.8l0.3,0.1
		c-0.5,2-1.1,3.9-1.7,5.9l-1.8,5.8c-0.6,1.9-1.2,3.9-1.9,5.8c-0.6,1.9-1.3,3.9-2,5.8L92.3,221.6z"/>
	<path class="st11" d="M118.4,197.4c-29.7,15.9-47.7-0.9-52.2-8c6.4-7.3,10.4-17.4,12.5-23.8c1.2-3.8,1.8-6.3,1.8-6.3l25.1-2.1
		l2.8-0.2c0,0,0,0.1,0.1,0.4c0.2,0.8,0.7,2.6,1.3,5.1C112.4,172.9,117.8,194.5,118.4,197.4z"/>
	<path class="st12" d="M109.8,162.5c-4.9,4-16.7,6-31.1,3.1c1.2-3.8,1.8-6.3,1.8-6.3l25.1-2.1l2.9,0.2
		C108.7,158.2,109.1,160.1,109.8,162.5z"/>
	<path class="st5" d="M124.9,109.4c-1.1,2.4-3.9,7.9-7.2,13.6c-2.6,4.5-4.1,9.1-5.1,14.2c-1.5,7.4-3.8,15.8-1.6,20.4
		c1.9,3.9-6.3,4.9-15.3,5.4c-7.2,0.4-19.2,0.4-17-3.7c4-7.6-0.4-17.6-1.6-21.6c-1.6-5.3-8.2-12.8-12.1-16.9c-1.8-1.8-3-3-3-3
		s6.9-1.3,9.2-7c1.5,1.5,6.9,6.4,9.8,9.1c1.3,1.2,3,1.7,4.7,1.4l5.6-1h6c2.1,0.3,3.7,0.5,4.9,0.6c1.9,0.2,3.8-0.8,4.8-2.5l8-14
		C115,104.4,120.4,109.8,124.9,109.4z"/>
	<path class="st8" d="M93.6,126.9L93.6,126.9c-2.9,0-5.3-2.4-5.3-5.3V112h10.6v9.6C98.9,124.5,96.5,126.9,93.6,126.9z"/>
	<g>
		<path class="st10" d="M88.3,115.2c0,0,6.4,9.4,10.6-0.9C99,114.3,88.3,115.2,88.3,115.2z"/>
		<path class="st8" d="M100.5,104.7c0.1,1.9,0.3,3.5,0.1,5.1c-0.1,1-0.4,2-0.8,3c-2.8,6-10.8,6.4-14.9-2c-3.4-7.1-1.9-14.4-1.9-14.4
			l9-4l8.7,4.4C100.3,100,100.4,102.6,100.5,104.7z"/>
	</g>
	<path class="st7" d="M102.5,101.1c-7.1,1.3-10.9-0.7-14.2-4.7c-2,1.7-1.5,3-1.4,5.5c0.1,1.9-0.4,3.8-4.9,3.8L80.1,99l2.1-5l9.1-3.9
		l10.7,1.8L102.5,101.1z"/>
	<g>
		<path class="st13" d="M91.6,105c0,0.5-0.2,1-0.6,1c-0.3,0-0.7-0.4-0.7-0.9c0-0.5,0.2-1,0.6-1C91.2,104.1,91.5,104.5,91.6,105z"/>
		<path class="st13" d="M91.9,103.4c-0.2-0.2-0.5-0.4-0.8-0.4c-0.3-0.1-0.6,0-0.9,0c-0.3,0.1-0.6,0.2-0.8,0.4
			c-0.3,0.2-0.5,0.4-0.7,0.7l-0.2-0.1c0.1-0.3,0.3-0.7,0.6-0.9c0.3-0.3,0.6-0.5,1-0.6c0.4-0.1,0.8-0.1,1.2,0
			c0.4,0.1,0.7,0.4,0.8,0.8L91.9,103.4z"/>
		<path class="st13" d="M96.1,104.5c0,0.5,0.3,1,0.7,0.9c0.3,0,0.6-0.5,0.6-1c0-0.5-0.3-1-0.7-0.9C96.3,103.6,96,104,96.1,104.5z"/>
		<path class="st13" d="M95.3,103.1c0.1-0.3,0.3-0.6,0.6-0.8c0.2-0.2,0.6-0.4,0.9-0.4c0.7,0,1.3,0.4,1.7,0.8l-0.1,0.2
			c-0.3-0.1-0.5-0.2-0.8-0.3c-0.3-0.1-0.5-0.1-0.7-0.1c-0.2,0-0.5,0.1-0.7,0.2c-0.2,0.1-0.4,0.3-0.7,0.5L95.3,103.1z"/>
		<path class="st14" d="M92.6,111.1l3.8-0.5v0C96.3,112.4,93.7,113.5,92.6,111.1L92.6,111.1z"/>
		<path class="st10" d="M94.3,104.7c0.1,0.4,0.1,0.9,0.3,1.2c0.1,0.2,0.2,0.3,0.3,0.4l0.3,0.2l0.1,0.1c0.1,0,0.1,0.1,0.2,0.1
			c0.4,0.4,0.4,1.2,0,1.6c-0.4,0.4-1.1,0.4-1.4,0l0.1-0.2c0.4,0.1,0.8,0.1,1-0.2c0.2-0.2,0.2-0.6,0-0.8c0-0.1-0.1-0.1-0.2-0.2
			l-0.3-0.2c-0.2-0.2-0.3-0.4-0.4-0.7c-0.1-0.5-0.1-1,0-1.4L94.3,104.7z"/>
		<ellipse class="st15" cx="89.4" cy="109.4" rx="2.5" ry="2.5"/>
		<path class="st15" d="M100.6,109.8c-0.1,0-0.2,0-0.3,0c-1.4-0.1-2.4-1.3-2.4-2.7c0.1-1.4,1.2-2.5,2.6-2.4
			C100.6,106.6,100.8,108.2,100.6,109.8z"/>
	</g>
	<g>
		<path class="st8" d="M85.4,105.9c-1.5-1.3-3.1-1.4-3.8,0.1c-0.8,1.8,1.7,5.8,4.2,4.5C86,110.2,85.4,105.9,85.4,105.9z"/>
		<path class="st10" d="M84.4,107.4c-0.2-0.5-0.4-0.9-0.8-1.1c-0.4-0.2-0.8-0.2-1.1,0.2l-0.1-0.1c0.1-0.3,0.3-0.5,0.6-0.6
			c0.3-0.1,0.6,0,0.8,0.2c0.2,0.2,0.4,0.4,0.6,0.6c0.1,0.2,0.2,0.5,0.2,0.8L84.4,107.4z"/>
	</g>
	<g class="st16">
		<path class="st9" d="M88.3,128.9c0.9,0.7,1.8,1.1,2.8,1.4c0.9,0.3,1.9,0.4,2.9,0.4c1,0,1.9-0.2,2.8-0.6c0.9-0.4,1.7-1,2.6-1.7
			c-0.4,1.1-1.1,2-2.1,2.7c-1,0.7-2.1,1-3.3,1c-1.2,0-2.3-0.3-3.3-0.8C89.6,130.8,88.7,130,88.3,128.9z"/>
	</g>
	<g class="st16">
		<path class="st9" d="M99.3,157.3c1.1-0.4,2.2-0.8,3.3-1.3c1.1-0.5,2.1-1.1,2.9-1.9c0.8-0.8,1.4-1.8,1.9-2.9c0.4-1.1,0.7-2.3,1-3.5
			c0,1.2-0.1,2.5-0.5,3.7c-0.4,1.2-1,2.3-1.9,3.2c-0.9,0.9-2,1.5-3.2,1.9C101.7,156.9,100.5,157.1,99.3,157.3z"/>
	</g>
	<g>
		<path class="st10" d="M54.3,80.2c-0.4,0.8-0.8,1.6-0.8,2.4c-0.1,0.8,0.1,1.7,0.7,2.3L54,85.1c-0.4-0.2-0.7-0.7-0.9-1.1
			c-0.2-0.5-0.2-1-0.2-1.4c0.1-1,0.6-1.9,1.2-2.5L54.3,80.2z"/>
		<path class="st10" d="M48.3,80.8c0.3-0.4,0.7-0.6,1.1-0.9c0.4-0.2,0.8-0.4,1.3-0.6c0.4-0.2,0.9-0.3,1.3-0.4
			c0.5-0.1,0.9-0.2,1.4-0.2l0,0.2c-0.9,0.3-1.7,0.6-2.6,0.9c-0.4,0.1-0.8,0.3-1.3,0.5c-0.4,0.2-0.8,0.4-1.2,0.6L48.3,80.8z"/>
	</g>
	<g>
		<path class="st10" d="M126.3,72c0.8,0.5,1.4,1.2,1.7,2.1c0.2,0.5,0.2,1,0.1,1.4c-0.1,0.5-0.3,1-0.6,1.3l-0.2-0.1
			c0.4-0.8,0.4-1.7,0.1-2.4c-0.3-0.8-0.8-1.5-1.4-2.1L126.3,72z"/>
		<path class="st10" d="M132.2,72.2c-0.4-0.2-0.8-0.3-1.3-0.4c-0.4-0.1-0.9-0.2-1.3-0.2c-0.9-0.1-1.8-0.2-2.7-0.4l0-0.2
			c0.5-0.1,0.9-0.1,1.4-0.1c0.5,0,0.9,0.1,1.4,0.1c0.5,0.1,0.9,0.2,1.4,0.3c0.4,0.1,0.9,0.3,1.3,0.6L132.2,72.2z"/>
	</g>
	<path class="st15" d="M116,242.6l-0.4,4.8c-5.6-6.7-4.1-11,0-14l0.1,0.9C116.2,237,116.3,239.8,116,242.6z"/>
	<path class="st15" d="M85.6,235.6c-1,1.4-2.1,2.5-3.1,3.2c-2.3,1.6-5.4,0.9-8.9-1.5C77.5,232.8,81.5,232.3,85.6,235.6z"/>
</g>
<g>
	<g>
		<path class="st5" d="M360.4,264.5c1.9,1.5,1.4,3.2,1.1,3.8c-0.8,1.7-6.1,15.4-10.8,16.4c-0.8,0.2-1.5-1-2-2.9
			c-0.3-1.4,0.1-11.3,0.1-12.1c5.3-3.2,4.1-9.3,4-9.6l0,0C352.9,260.1,358.4,263,360.4,264.5z"/>
		<path class="st8" d="M347,255.7l5.9,4.4l0,0c0.1,0.3,1.2,6.5-4,9.6l-7.1-6.3L347,255.7z"/>
	</g>
	<g>
		<path class="st5" d="M327.3,291.1c-0.2,2.4-1.8,2.4-2.5,2.4c-1.9,0-19.1,0.1-19.3,0c0,0,0-1.9,1.4-3.3c1-1,9.3-6,10-6.4
			c5.4,2.9,9.8-1.4,10-1.6l0,0C326.9,282.2,327.5,288.6,327.3,291.1z"/>
		<path class="st8" d="M327.3,274.7l-0.4,7.5l0,0c-0.2,0.2-4.6,4.5-10,1.6l1.4-9.6L327.3,274.7z"/>
	</g>
	<path class="st7" d="M332.9,198.5l3.2,30.9c0.1,1.2,0.5,2.5,1.2,3.5l12.4,21.2l-9.6,14.5l-16.2-24.2L332.9,198.5z"/>
	<path class="st11" d="M337.6,185.8c-2,5.7-3.2,11.6-3.5,17.6l-4.8,73.6h-16l1.9-96.4l0.2-10.8l23.7-2.1c0.4,1.2,0.7,2.4,0.8,3.7
		C340.4,175.8,339.4,180.7,337.6,185.8z"/>
	<path class="st9" d="M304.2,94.3c-1.7-1.4-2.5-4-1.5-6.2c0.3-0.8,1.1-1.3,1.9-1.3c-1.7-1.8-0.7-3.6-0.3-4.5
		c0.3-0.6,0.8-1.2,1.4-1.6c0.8-0.4,2.1-0.6,3.6-0.2c-0.1-1.6,0.7-2.1,0.9-2.3c0.6-0.7,1.4-1.2,2.3-1.4c1.2-0.3,3-0.1,3.9,0.9
		c0.2,0.2,0.4,0.9,0.6,0.9c0.2,0,0.3-0.2,0.4-0.3c0.5-0.9,1.6-1.2,2.6-1.2c0.8,0,1.7,0.1,2.4,0.7c0.6,0.6,0.9,1.7,0.3,2.4
		c1.4-0.8,3.3-0.9,4.6,0.1c1.3,1,1.8,3.1,0.8,4.4c0.8,0,1.6,0.4,2,1.1c0.5,0.6,0.7,1.5,0.9,2.3c0.5,3.1-0.7,6.5-3.1,8.4
		c-1.2,1-2.8,1.6-4.3,1.6c-1.2,0.1-2.5-0.2-3.7-0.4c-2.2-0.4-4.3-0.8-6.4-1.7c-1.5-0.6-2.9-1.4-4.1-2.4c-0.5-0.4-0.7,1.8-1.4,1.9
		C306.5,95.7,305.2,95.2,304.2,94.3z"/>
	<g>
		<g>
			<path class="st10" d="M297,137.3c0,0-5.6,6.5-5.6,6.5s-7.5-6.6-11-12.5c-0.1-0.1-0.2-0.2-0.2-0.4c-0.5-0.8-0.9-1.6-1.1-2.4
				c0,0,0,0,0,0c-0.1-0.5,0-0.9,0.3-1.2c0.4-0.4,0.6-0.1,1.4,0.7c-0.8-1.7-1.3-2.7-1.7-3.7c-0.3-0.8-0.2-1.3,0.2-1.7
				c0.4-0.3,0.9-0.1,1.5,0.4c0-0.1-0.2-1.7,0.3-2.1c0.5-0.4,1.4,0.1,2.4,1.1c0.1,0.1,0.3,0.3,0.4,0.4c0-0.1-0.1-0.3-0.1-0.4
				c0-0.4,0.1-0.8,0.4-1c0.9-0.8,2.4,1.2,2.9,1.7c1.9,2.2,3.9,4.4,5.5,6.8c0.8,1.2,1.5,2.4,2.2,3.6
				C294.9,133.6,297.1,137.1,297,137.3z"/>
		</g>
		<path class="st10" d="M291.3,143.8c0,0,15.9,14.1,21.4,13.5c5.5-0.6,7.1-12.5,7.1-12.5l-22.8-7.6l-6.1,2.3L291.3,143.8z"/>
	</g>
	<polygon class="st8" points="325.7,97.9 325.7,117.8 314.9,117.8 314.9,99.8 	"/>
	<g>
		<path class="st10" d="M322.1,105.2c-0.5,1.7-2.2,5.4-7.2,6.3v-5.8L322.1,105.2z"/>
		<path class="st8" d="M323.9,102.5c-2,4-5.9,7.1-10.3,5.7c-2.3-0.7-3.6-2.5-4.4-5c-0.4-1.4-0.7-3.1-0.9-5c-0.3-2.8-0.3-6-0.4-9.4
			l8.4-5.7l8.3,4.8C324.6,87.9,325.9,98.5,323.9,102.5z"/>
	</g>
	<path class="st12" d="M339.9,171.4c-3.9,5.8-15.2,8.9-24.7,9.2l0.2-10.8l23.7-2.1C339.5,168.9,339.8,170.1,339.9,171.4z"/>
	<path class="st4" d="M338.9,170.9c-6.9,3.8-16,4.4-25.7,3.8c-1.2,0.2-2.3-0.7-2.3-2c-0.1-4-0.2-8.1-0.2-12.1
		c-0.1-4.7-0.2-9.4-0.3-14.2c0-0.9,0-1.8-0.1-2.7c-0.2-5.9-0.6-11.9-0.4-17.8c0.2-6.1,3.2-10.1,8.7-12.2c3.9-1.5,8.8-2.4,11.8,1.5
		c5.1,6.7,5.6,15.7,7.4,23.6c1.9,8.6,3.1,17.4,4,26.1C342.1,167.3,341.7,169.1,338.9,170.9z"/>
	<path class="st17" d="M328.3,144.7c-0.9,6-4.7,16.8-17.6,16c-0.1-4.7-0.2-9.4-0.3-14.2c0-0.9,0-1.8-0.1-2.7L328.3,144.7z"/>
	<path class="st8" d="M329.1,143.8c0,0-1.4,5-4.3,8.1c-0.9,1-1.9,1.8-3,2.2c-1.3,0.5-3.3,0.4-5.8-0.2c-5.8-1.5-14.1-5.7-21.6-11.7
		l-2.3-10.9c7.3-1,16.8,5.9,24.6,9.1L329.1,143.8z"/>
	<path class="st9" d="M325.5,90.3c0.3-0.8,0.2-1.8-0.3-2.5c-0.4-0.7-1.2-1.3-2-1.4c-0.1-0.5-0.5-0.9-1-1.2c-0.5-0.2-1-0.3-1.5-0.4
		c-0.2-0.1-0.5-0.1-0.7-0.2c-0.3-0.2-0.6-0.4-0.8-0.6c-1-0.9-2.5-1.3-3.8-1c-0.7,0.1-1.5,0.5-2.2,0.6c-0.9,0.1-1.9,0-2.8,0.4
		c-0.7,0.4-1.1,1.1-1.7,1.6c-0.7,0.6-1.6,1-1.7,1.9c0,0.2,0,0.5-0.2,0.7c-0.1,0.2-0.3,0.2-0.5,0.3c-0.4,0.2-0.6,0.4-0.8,0.8
		c-0.4,0.8-0.1,1.9,0.4,2.6c0.5,0.7,1.1,1.1,1.8,1.2c0.5,0.2,1,0.3,1.5,0.2c1.2-0.1,2.3-1.1,2.5-2.3c0,0.5,0.2,0.9,0.5,1.2
		c0.4,0.4,0.9,0.6,1.5,0.7c1.1,0.1,2.5-0.1,3-1.3c-0.1,0.2,0.8,1,0.9,1.1c0.2,0.2,0.4,0.3,0.6,0.5c0.2,0.2,0.5,0.3,0.7,0.5
		c0.2,0.1,0.4,0.2,0.6,0.3c1,0.5,2,0.7,3.1,0.6c1.5-0.2,2.8-1,3.7-2.2C326.2,91.4,325.9,90.8,325.5,90.3z"/>
	<g>
		<path class="st8" d="M299.6,135.3c0,0-5.2,6.9-5.2,6.9s-7.9-6.1-11.8-11.7c-0.1-0.1-0.2-0.2-0.2-0.4c-0.5-0.8-1-1.5-1.3-2.3
			c0,0,0,0,0,0c-0.1-0.5-0.1-0.9,0.3-1.2c0.4-0.4,1.1,0.3,2,1c-1.1-1.4-2-3-2.4-4c-0.3-0.7-0.3-1.3,0.1-1.7c0.3-0.3,0.9-0.1,1.5,0.3
			c0-0.1-0.3-1.7,0.1-2.1c0.5-0.5,1.4,0,2.4,1c0.1,0.1,0.3,0.3,0.4,0.4c-0.1-0.1-0.1-0.3-0.1-0.4c-0.1-0.4,0-0.8,0.3-1
			c0.9-0.8,2.5,1,3,1.5c2,2.1,4.2,4.1,6,6.4c0.8,1.1,1.7,2.3,2.4,3.4C297.3,131.8,299.8,135.1,299.6,135.3z"/>
		<path class="st8" d="M296.1,127.8c1.4,3.8,1.9,7,1.1,7.3c-0.8,0.3-2.5-2.5-3.9-6.3c-1.4-3.8-2.4-6.7-1.1-7.3
			C293.3,121.1,294.7,124,296.1,127.8z"/>
	</g>
	<path class="st17" d="M329.1,122.1c4.1,7.6,4.8,20.3,2.9,25.4l-1.3-0.4L329.1,122.1z"/>
	<path class="st4" d="M316.7,140.5c0,0,0.3-19,7.2-20.3c6.7-1.3,8.7,3.4,6.9,26.9C330.5,147.1,316.7,140.5,316.7,140.5z"/>
	<path class="st18" d="M305.8,88.5c-0.1,0.2-0.2,0.4-0.3,0.6"/>
	<path class="st11" d="M330.7,147.2c-1.2-0.5-2.4-1-3.6-1.5c-1.2-0.5-2.4-1.1-3.5-1.6c-1.2-0.6-2.3-1.1-3.5-1.7
		c-1.2-0.6-2.3-1.2-3.4-1.8l0.1-0.3c1.2,0.5,2.4,1,3.6,1.5c1.2,0.5,2.4,1.1,3.5,1.6c1.2,0.6,2.3,1.1,3.5,1.7
		c1.2,0.6,2.3,1.2,3.4,1.8L330.7,147.2z"/>
	<path class="st11" d="M322,121.2c-0.3,0.3-0.7,0.6-1,0.9c-0.2,0.1-0.3,0.3-0.4,0.5c-0.1,0.2-0.3,0.3-0.4,0.5
		c-0.5,0.7-0.9,1.4-1.2,2.2c-0.6,1.6-1,3.2-1.3,4.9c-0.1,0.8-0.3,1.7-0.4,2.6c-0.1,0.9-0.2,1.7-0.2,2.6c-0.1,1.7-0.2,3.4-0.3,5.2
		l-0.3,0c0-0.9-0.1-1.7-0.1-2.6c0-0.9,0-1.7,0-2.6c0.1-1.7,0.2-3.5,0.5-5.2c0.3-1.7,0.7-3.4,1.5-5.1c0.4-0.8,0.8-1.6,1.4-2.3
		c0.5-0.7,1.3-1.2,1.9-1.7L322,121.2z"/>
	<path class="st15" d="M324.8,152c-0.9,1-1.9,1.8-3,2.2c-1.4,0.6-4,0.4-6.8-0.5C316.7,149.6,323.3,149.8,324.8,152z"/>
	<g>
		<path class="st10" d="M285.1,120.9c0.9,0.8,1.7,1.6,2.5,2.5c0.4,0.4,0.8,0.9,1.2,1.3c0.4,0.4,0.8,0.9,1.1,1.4l-0.2,0.1
			c-0.4-0.4-0.9-0.8-1.3-1.2c-0.4-0.4-0.8-0.8-1.2-1.3c-0.8-0.9-1.6-1.7-2.3-2.7L285.1,120.9z"/>
		<path class="st10" d="M282.5,122c1,0.9,1.8,1.9,2.7,2.9c0.4,0.5,0.9,1,1.3,1.5c0.4,0.5,0.8,1,1.2,1.6l-0.2,0.1
			c-0.5-0.4-0.9-0.9-1.4-1.4c-0.4-0.5-0.9-1-1.3-1.5c-0.9-1-1.7-2-2.5-3.1L282.5,122z"/>
		<path class="st10" d="M282.9,127.1c0.6,0.4,1.1,1,1.6,1.5c0.2,0.3,0.5,0.5,0.7,0.8c0.2,0.3,0.4,0.6,0.6,0.9l-0.2,0.1
			c-0.3-0.2-0.6-0.5-0.8-0.7c-0.3-0.2-0.5-0.5-0.7-0.8c-0.5-0.5-0.9-1.1-1.3-1.7L282.9,127.1z"/>
	</g>
	<g>
		<path class="st19" d="M316.4,96.5c0,0.6,0.4,1,0.7,1c0.4,0,0.6-0.5,0.6-1.1c0-0.6-0.4-1-0.7-1C316.6,95.4,316.4,95.9,316.4,96.5z"
			/>
		<path class="st19" d="M315.7,94.8c0.3-0.6,1-1,1.7-0.9c0.3,0,0.7,0.2,0.9,0.4c0.3,0.2,0.5,0.5,0.6,0.8l-0.2,0.1
			c-0.2-0.2-0.5-0.4-0.7-0.5c-0.2-0.1-0.5-0.2-0.7-0.2c-0.3,0-0.5,0-0.8,0.1c-0.3,0.1-0.5,0.2-0.7,0.4L315.7,94.8z"/>
		<path class="st19" d="M311.7,96.6c0,0.6-0.2,1-0.6,1.1c-0.4,0-0.7-0.4-0.7-1c0-0.6,0.2-1,0.6-1.1C311.3,95.6,311.7,96,311.7,96.6z
			"/>
		<path class="st19" d="M312.3,94.9c-0.5-0.3-1-0.5-1.6-0.4c-0.3,0-0.5,0.1-0.7,0.3c-0.2,0.2-0.4,0.4-0.6,0.6l-0.2-0.1
			c0.1-0.3,0.3-0.6,0.5-0.9c0.3-0.2,0.6-0.4,0.9-0.5c0.7-0.1,1.4,0.2,1.8,0.8L312.3,94.9z"/>
		<path class="st14" d="M316.1,102.2l-4.1-0.1l0,0C312.9,104.1,314.3,104.7,316.1,102.2L316.1,102.2z"/>
		<path class="st10" d="M314,96c0.1,0.5,0.2,1.1,0.1,1.6c-0.1,0.3-0.2,0.6-0.4,0.8c-0.2,0.2-0.4,0.4-0.5,0.5
			c-0.2,0.3-0.2,0.8,0.1,1.1c0.3,0.3,0.9,0.2,1.3,0l0.1,0.1c-0.4,0.4-1.1,0.5-1.6,0.2c-0.3-0.2-0.5-0.5-0.5-0.8c0-0.3,0-0.7,0.2-0.9
			c0.2-0.3,0.4-0.4,0.6-0.6c0.2-0.2,0.3-0.3,0.4-0.6c0.1-0.4,0.1-1,0.1-1.5L314,96z"/>
		<path class="st15" d="M317.3,101c0.2,1.4,1.5,2.3,2.9,2.1c1.4-0.2,2.3-1.6,2-3c-0.2-1.4-1.5-2.3-2.9-2.1
			C318,98.3,317.1,99.6,317.3,101z"/>
		<path class="st15" d="M309.2,103.2c-0.4-1.4-0.7-3.1-0.9-5c1.2,0,2.3,0.9,2.5,2.1C311,101.6,310.3,102.8,309.2,103.2z"/>
	</g>
	<g>
		<path class="st8" d="M323.6,95.7c0.8-0.9,1.8-1.5,3.1-1.3c1.8,0.3,1.5,7.6-2.9,6.2C322.9,100.6,323.6,95.7,323.6,95.7z"/>
		<path class="st10" d="M325,97c-0.1-0.5-0.1-1,0.3-1.5c0.2-0.2,0.5-0.3,0.8-0.2c0.3,0.1,0.5,0.3,0.6,0.5l-0.1,0.1
			c-0.2-0.1-0.4-0.2-0.5-0.2c-0.2,0-0.3,0-0.4,0.1c-0.3,0.2-0.4,0.7-0.5,1.1L325,97z"/>
	</g>
</g>
<g>
	<g>
		<path class="st8" d="M180.5,274.2l-2,7.3c2,4.4,6.8,6,11.3,1.8l1.6-7.8L180.5,274.2z"/>
		<path class="st7" d="M178.5,281.5l-3.8,14c-0.7,3,2.6,8.1,4.1,7.9h0c2.4,0.1,7.2-2,7.9-5l3.1-15.1
			C184.2,286.8,181.3,284.8,178.5,281.5z"/>
	</g>
	<g>
		<path class="st8" d="M208.7,272.4l0.5,8.4l0,0c1.7,3.7,9.1,7,11.3,1.8l-1.5-10.8L208.7,272.4z"/>
		<path class="st7" d="M208.8,290.9c0.2,2.7,2.1,2.7,2.8,2.7c2.1,0,21.4,0.1,21.6,0c0,0,0-2.1-1.5-3.7c-1.1-1.2-10.5-6.7-11.2-7.2
			c-1.8,2.5-7.2,2.5-11.3-1.8l0,0C209.2,280.8,208.5,288,208.8,290.9z"/>
	</g>
	<path class="st8" d="M168.9,156.5c2.5,2.2,10.2,6.7,13.6,5.6s1.8-9.4,1.8-9.4l-11.2-3.4L168.9,156.5z"/>
	<path class="st7" d="M214.3,80.4C214.3,80.4,214.3,80.5,214.3,80.4c-5.1,3.9-8.7-3.3-11.4-4c-2.6-0.7-6,1.9-8.3,0.3
		c0,0-1.4,9.7-0.4,12.9c-14.5-5.9-6.6-20.8-2.6-19.1c2.8-10,12.2-5.5,16.4-3.9C217.6,62.3,219.3,76.5,214.3,80.4z"/>
	<path class="st8" d="M259.9,74c-0.3-0.1,1-4.8,1.1-5.4c0.5-1.3,1.2-2.5,2.6-3.3c3.5-1.9,7.7-2.3,11.7-2.5c2.5-0.1,8.2-0.4,9.6,1.5
		c1.2,1.9-1.9,3.2-3.3,3.5c-2.8,0.7-5.9,0.7-8.3,2.3c-2.2,1.5-4.2,4.5-3.5,7.1C269.8,77.3,259.9,74,259.9,74z"/>
	<polygon class="st7" points="228.4,150.3 222.4,275.9 207.2,276.4 207.7,205.1 193.3,277.2 177.3,276.7 190.5,146.3 	"/>
	<path class="st14" d="M228.2,158.3c-0.5,0.3-1.1,0.7-1.7,1c-3.2,1.7-7.9,3.2-13.2,4c-3.7,0.6-7.8,0.9-11.7,0.6
		c-4.5-0.3-8.9-1.2-12.5-3.2l0.3-3.8l3.6-50.9l26.1-1.2L228.2,158.3z"/>
	<path class="st8" d="M204.4,109.4L204.4,109.4c-3.2,0-5.8-2.7-5.8-6l-0.5-12.1h11.5l0.5,12.2C210.2,106.7,207.6,109.4,204.4,109.4z
		"/>
	<path class="st10" d="M198.3,95.7c2.4,3.9,7.9,6.7,11.5-0.4L198.3,95.7z"/>
	<path class="st8" d="M212.4,89c-0.3,2.9-1.1,5.2-2.8,6.6c-3.6,2.8-10.7,2.9-14.4-3.2c-3.7-6.1-3.4-16.8-3.4-16.8l8.8-4.1l9.1,0.5
		l1.6,4.2c0.5,2.5,0.9,5.2,1.1,7.8C212.5,85.7,212.6,87.4,212.4,89z"/>
	<g>
		<rect x="270.4" y="22.4" class="st20" width="4.5" height="34.5"/>
		<polygon class="st1" points="282,29.3 284.2,42.6 272.7,36.3 261.1,42.6 262.6,33.6 263.3,29.3 254,19.9 266.9,18 272.7,5.9 
			278.4,18 281.4,18.4 291.4,19.9 		"/>
		<path class="st1" d="M283.9,60.3h-22.4l0.3-1.3l1.7-7.8c0.2-1,1.1-1.7,2.1-1.7h14.3c1,0,1.9,0.7,2.1,1.7L283.9,60.3z"/>
		<path class="st21" d="M282,29.3l2.2,13.3l-11.5-6.3l-11.5,6.3l1.5-8.9c10.3-2,15.9-9.3,18.8-15.2l10,1.5L282,29.3z"/>
		<path class="st22" d="M267.4,21.2c0.2,0.8-1,1.8-2.6,2.1c-1.6,0.4-3.1,0-3.2-0.8c-0.2-0.8,1-1.8,2.6-2.1
			C265.8,20,267.3,20.4,267.4,21.2z"/>
		<path class="st21" d="M283.9,60.3h-22.4l0.3-1.3c5.9-0.4,11.5-5.1,14.2-9.5h3.9c1,0,1.9,0.7,2.1,1.7L283.9,60.3z"/>
		<path class="st20" d="M285.9,63.1h-26.4c-1.1,0-2-0.9-2-2.1l0,0c0-1.1,0.9-2.1,2-2.1h26.4c1.1,0,2,0.9,2,2.1l0,0
			C287.9,62.2,287,63.1,285.9,63.1z"/>
		<g>
			<path class="st1" d="M253.7,3.1c1.4,0.9,2.7,2,3.9,3.1c0.6,0.6,1.2,1.2,1.7,1.8c0.6,0.6,1.1,1.3,1.5,2l-0.4,0.4
				c-0.7-0.4-1.4-0.9-2-1.5c-0.6-0.5-1.2-1.1-1.8-1.7c-1.2-1.2-2.3-2.4-3.3-3.8L253.7,3.1z"/>
			<path class="st1" d="M292,3.6c-1,1.4-2.1,2.6-3.3,3.8c-0.6,0.6-1.2,1.1-1.8,1.7c-0.6,0.5-1.3,1-2,1.5l-0.4-0.4
				c0.5-0.7,1-1.4,1.5-2c0.6-0.6,1.1-1.2,1.7-1.8c1.2-1.1,2.4-2.2,3.9-3.1L292,3.6z"/>
			<path class="st1" d="M286.9,12.6c0.7-0.7,1.4-1.2,2.2-1.7c0.4-0.2,0.8-0.4,1.3-0.6c0.4-0.2,0.9-0.3,1.4-0.3l0.3,0.5
				c-0.3,0.4-0.7,0.7-1,1c-0.4,0.3-0.8,0.5-1.2,0.7c-0.8,0.4-1.7,0.8-2.6,0.9L286.9,12.6z"/>
			<path class="st1" d="M258.2,13.1c-1-0.1-1.8-0.5-2.6-0.9c-0.4-0.2-0.8-0.5-1.2-0.7c-0.4-0.3-0.7-0.6-1-1l0.3-0.5
				c0.5,0,0.9,0.2,1.4,0.3c0.4,0.2,0.8,0.4,1.3,0.6c0.8,0.5,1.6,1,2.2,1.7L258.2,13.1z"/>
		</g>
	</g>
	<g class="st23">
		<path class="st11" d="M201.3,111.4c0.8,0.5,1.4,0.9,2.1,1.1c0.7,0.2,1.4,0.3,2.1,0.2c0.7-0.1,1.3-0.3,2-0.7
			c0.6-0.4,1.3-0.9,1.9-1.5c-0.2,0.9-0.6,1.7-1.2,2.4c-0.6,0.7-1.5,1.2-2.5,1.3c-1,0.1-2-0.1-2.7-0.7
			C202.1,113,201.5,112.3,201.3,111.4z"/>
	</g>
	<path class="st17" d="M226.5,159.3c-3.2,1.7-7.9,3.2-13.2,4c-3-9.4-4.3-28.4-2.4-48L226.5,159.3z"/>
	<path class="st17" d="M201.7,164c-4.5-0.3-8.9-1.2-12.5-3.2l0.3-3.8l10.9-43C203.6,132,203.5,153.3,201.7,164z"/>
	<path class="st11" d="M210.2,102c11.1-1.5,22-2.8,32.7-4.1c1.9-0.2,3.5-1.4,4.3-3.1l11.4-23.5l13.2,3.3l-9.7,26.2
		c-2.5,6.7-7.8,11.8-14.5,13.8l-18.7,5.7c0,0-1.4,15.3,9.4,46c-0.4,2.4-9.7,5.5-19,5.1C215,167.2,213.4,158.3,210.2,102z"/>
	<path class="st11" d="M198.7,103.4c0,0-9.9-0.2-22.9,2c-4.2,0.7-8.1,2.9-11,6.2c-5.3,6.2-11.6,15.8-15.4,21.7
		c-1.9,3-1.5,6.9,0.9,9.4l16.2,18.2l10.1-11l-11.8-13.3l13.3-16.4c0,0,2.3-1.1,4,0.3c0.5,1.7,0.7,22.2-6.6,51.9
		c3,2.4,18.1,3.9,21.4,0.7C197.6,171.7,205.1,134.7,198.7,103.4z"/>
	<path class="st13" d="M200.9,84c0.1,0.7-0.2,1.2-0.7,1.3s-0.8-0.5-0.9-1.1c-0.1-0.7,0.2-1.2,0.7-1.3
		C200.4,82.8,200.8,83.3,200.9,84z"/>
	<path class="st13" d="M201.2,82c-0.6-0.3-1.4-0.4-2.1-0.2c-0.7,0.2-1.3,0.6-1.8,1.2l-0.2-0.1c0.1-0.4,0.4-0.8,0.7-1.1
		c0.3-0.3,0.8-0.5,1.2-0.6c0.4-0.1,0.9-0.1,1.3,0c0.4,0.1,0.9,0.3,1.1,0.7L201.2,82z"/>
	<path class="st13" d="M206.4,83.1c0.1,0.7,0.5,1.2,0.9,1.1c0.4,0,0.7-0.6,0.7-1.3c-0.1-0.7-0.5-1.2-0.9-1.1
		C206.7,81.9,206.4,82.5,206.4,83.1z"/>
	<path class="st13" d="M205.2,81.1c0.2-0.4,0.5-0.7,0.9-1c0.4-0.2,0.8-0.4,1.3-0.4c0.5,0,0.9,0,1.3,0.3c0.4,0.2,0.7,0.6,0.9,1
		l-0.2,0.2c-0.6-0.5-1.3-0.7-2-0.7c-0.7,0.1-1.4,0.4-2,0.8L205.2,81.1z"/>
	<path class="st14" d="M201.7,90.6l6.1-1.1l0,0C207.6,92.5,203.6,94.3,201.7,90.6L201.7,90.6z"/>
	<path class="st7" d="M214.3,80.4C214.3,80.4,214.3,80.5,214.3,80.4c-5.1,3.9-8.7-3.3-11.4-4c-2.6-0.7-6,1.9-8.3,0.3
		c0,0-2.9,6.6-0.4,12.9l-4.4-6.6c0,0-0.5-7.4-0.7-7.4c0-0.1,4.5-3.7,4.5-3.7l8.9-3.4l9.1,1.6l1.4,5.4L214.3,80.4z"/>
	<path class="st8" d="M193.7,84.4c-2.4,0-4,0.4-3.7,3.1c0.2,2.2,2.5,6.1,5.7,3.2L193.7,84.4z"/>
	<g class="st0">
		<path class="st4" d="M206,213.1c0.4-2.3,0.7-4.5,1.2-6.8c0.4-2.3,0.8-4.5,1.3-6.8l1.4-6.7c0.5-2.2,1-4.5,1.5-6.7l0.3,0.1
			c-0.3,2.3-0.7,4.5-1.1,6.8l-1.3,6.8c-0.5,2.2-0.9,4.5-1.4,6.7c-0.5,2.2-1,4.5-1.5,6.7L206,213.1z"/>
	</g>
	<path class="st10" d="M193.4,87.8c-0.1-0.4-0.2-0.7-0.3-1c-0.2-0.3-0.4-0.5-0.7-0.5c-0.3-0.1-0.6,0-0.8,0.2
		c-0.2,0.2-0.4,0.5-0.5,0.8l-0.2,0c0-0.4,0.1-0.8,0.4-1.2c0.3-0.3,0.8-0.5,1.2-0.4c0.5,0.1,0.8,0.5,1,0.9c0.2,0.4,0.2,0.8,0.1,1.2
		H193.4z"/>
	<path class="st10" d="M203.9,83c0.1,0.6,0.2,1.2,0.4,1.7c0.1,0.2,0.3,0.4,0.5,0.6c0.3,0.2,0.5,0.3,0.8,0.5c0.3,0.3,0.4,0.6,0.4,1
		c0,0.4-0.2,0.8-0.4,1c-0.6,0.5-1.4,0.5-1.9,0.1l0.1-0.2c0.5,0.2,1.2,0.1,1.5-0.3c0.4-0.4,0.3-1-0.1-1.3c-0.1-0.2-0.5-0.3-0.7-0.5
		c-0.3-0.2-0.5-0.5-0.7-0.8c-0.3-0.6-0.3-1.3-0.2-1.9L203.9,83z"/>
	<path class="st15" d="M212.4,89c-0.3,0.1-0.5,0.1-0.8,0.1c-1.4,0-2.5-1.2-2.5-2.6c0-1.4,1.1-2.6,2.5-2.6c0.3,0,0.6,0,0.8,0.1
		C212.5,85.7,212.6,87.4,212.4,89z"/>
	<ellipse class="st15" cx="197.8" cy="89.1" rx="2.5" ry="2.6"/>
</g>
</svg>
