<svg width="187" height="42" viewBox="0 0 187 42" fill="none" xmlns="http://www.w3.org/2000/svg">
<path d="M42.7471 29.3825V3.90247H52.2496C53.9821 3.90247 55.5046 4.21747 56.8346 4.86497C58.1821 5.47747 59.2146 6.38747 59.9846 7.59497C60.7371 8.78497 61.1221 10.2375 61.1221 11.935C61.1221 13.6325 60.7371 15.0675 59.9496 16.275C59.1971 17.465 58.1646 18.375 56.8346 19.005C55.5046 19.635 53.9821 19.9675 52.2496 19.9675H47.4021V29.365H42.7471V29.3825ZM47.4021 15.89H52.3371C53.1771 15.89 53.9121 15.7325 54.5246 15.4175C55.1371 15.085 55.6096 14.6125 55.9596 14.0175C56.2921 13.4225 56.4671 12.74 56.4671 11.97C56.4671 11.2 56.2921 10.4825 55.9596 9.92247C55.6271 9.32747 55.1371 8.87246 54.5246 8.55747C53.9121 8.22497 53.1771 8.04996 52.3371 8.04996H47.4021V15.9075V15.89Z" fill="white"/>
<path d="M64.1504 29.3825V3.90247H68.8054V29.365H64.1504V29.3825Z" fill="white"/>
<path d="M97.8377 3.90259V29.3651H93.1477V12.0576L85.2902 22.5401H84.7477L76.8552 11.7426V29.3826H72.2002V3.90259H76.6452L85.1152 15.4001L93.3927 3.90259H97.8552H97.8377Z" fill="white"/>
<path d="M100.708 29.3825V25.1125H102.178C103.263 25.1125 104.138 24.7975 104.768 24.185C105.433 23.555 105.765 22.6975 105.765 21.665V3.90247H110.438V21.4725C110.438 23.0475 110.105 24.4125 109.405 25.62C108.74 26.81 107.795 27.7375 106.535 28.385C105.31 29.05 103.84 29.3825 102.16 29.3825H100.69H100.708Z" fill="white"/>
<path d="M126.013 3.90259C118.978 3.90259 113.29 9.60759 113.29 16.6251C113.29 23.6426 118.995 29.3476 126.013 29.3476C133.03 29.3476 138.735 23.6426 138.735 16.6251C138.735 9.60759 133.03 3.90259 126.013 3.90259ZM126.013 25.1126C121.34 25.1126 117.543 21.3151 117.543 16.6426C117.543 11.9701 121.34 8.17259 126.013 8.17259C130.685 8.17259 134.483 11.9701 134.483 16.6426C134.483 21.3151 130.685 25.1126 126.013 25.1126Z" fill="white"/>
<path d="M121.043 16.7476C121.043 18.0776 121.568 19.3201 122.495 20.2651C123.423 21.1926 124.683 21.7176 126.013 21.7176C127.343 21.7176 128.585 21.1926 129.53 20.2651C130.458 19.3376 130.983 18.0776 130.983 16.7476H121.025H121.043Z" fill="#2D68F8"/>
<g opacity="0.7">
<path d="M145.138 29.19V15.3125H146.958V27.5275H153.048V29.2075H145.12L145.138 29.19Z" fill="white"/>
<path d="M161.885 20.5974C161.553 20.0724 161.115 19.6699 160.52 19.3899C159.943 19.0924 159.26 18.9349 158.49 18.9349C157.895 18.9349 157.335 19.0574 156.775 19.2674C156.233 19.4774 155.76 19.7574 155.34 20.1424C154.938 20.4924 154.64 20.9124 154.448 21.3674L155.953 22.1374C156.163 21.6649 156.495 21.2799 156.933 20.9824C157.37 20.6849 157.895 20.5449 158.455 20.5449C159.12 20.5449 159.645 20.7199 160.048 21.0699C160.45 21.3849 160.66 21.8399 160.66 22.3824V22.8374L157.213 23.3974C156.478 23.5374 155.848 23.7474 155.358 24.0449C154.868 24.3424 154.518 24.7099 154.273 25.1299C154.045 25.5674 153.923 26.0049 153.923 26.5649C153.923 27.1249 154.08 27.6324 154.36 28.0524C154.64 28.4724 155.043 28.8224 155.533 29.0674C156.058 29.3124 156.635 29.4174 157.283 29.4174C157.86 29.4174 158.385 29.3474 158.875 29.1724C159.348 28.9974 159.785 28.7699 160.135 28.4724C160.328 28.3149 160.503 28.1399 160.66 27.9299V29.2074H162.375V22.3999C162.375 21.6999 162.2 21.1049 161.868 20.5974H161.885ZM160.66 24.9374C160.66 25.4799 160.52 26.0049 160.24 26.4599C159.978 26.9149 159.61 27.2824 159.138 27.5624C158.683 27.8249 158.14 27.9474 157.493 27.9474C157.003 27.9474 156.6 27.8249 156.25 27.5449C155.935 27.2649 155.76 26.9324 155.76 26.5124C155.76 26.0924 155.918 25.7074 156.198 25.4099C156.495 25.1124 156.968 24.9024 157.615 24.7974L160.66 24.2899V24.9374Z" fill="white"/>
<path d="M174.047 21.5075C173.627 20.7025 173.015 20.0725 172.262 19.6175C171.51 19.1625 170.67 18.935 169.725 18.935C168.885 18.935 168.15 19.11 167.502 19.4775C166.995 19.7575 166.575 20.1075 166.242 20.545V15.1025H164.51V29.2075H166.207V27.7375C166.54 28.21 166.96 28.595 167.485 28.875C168.167 29.2425 168.902 29.4175 169.707 29.4175C170.67 29.4175 171.51 29.19 172.262 28.735C173.015 28.2625 173.627 27.65 174.047 26.845C174.485 26.0575 174.695 25.1825 174.695 24.185C174.695 23.1875 174.485 22.2775 174.047 21.5075ZM172.437 26.005C172.157 26.5475 171.772 26.9675 171.282 27.2825C170.775 27.5975 170.215 27.7375 169.585 27.7375C168.955 27.7375 168.36 27.5975 167.87 27.2825C167.362 26.9675 166.96 26.5475 166.662 26.005C166.382 25.4625 166.242 24.8675 166.242 24.185C166.242 23.5025 166.382 22.89 166.662 22.365C166.977 21.8225 167.362 21.385 167.87 21.07C168.377 20.755 168.955 20.5975 169.585 20.5975C170.215 20.5975 170.775 20.7725 171.282 21.0875C171.772 21.4025 172.157 21.8225 172.437 22.365C172.717 22.8725 172.875 23.52 172.875 24.185C172.875 24.85 172.717 25.4625 172.437 26.005Z" fill="white"/>
<path d="M179.998 29.4176C178.983 29.4176 178.125 29.1726 177.373 28.6826C176.638 28.1926 176.095 27.5101 175.78 26.6701L177.163 26.0051C177.443 26.6001 177.845 27.0726 178.335 27.4226C178.825 27.7726 179.385 27.9476 179.998 27.9476C180.558 27.9476 180.995 27.8251 181.363 27.5451C181.73 27.2826 181.905 26.9326 181.905 26.5126C181.905 26.2151 181.818 25.9876 181.643 25.8126C181.485 25.6376 181.275 25.4801 181.048 25.3751C180.803 25.2701 180.593 25.1826 180.4 25.1301L178.895 24.6926C177.985 24.4301 177.32 24.0626 176.9 23.5726C176.48 23.0826 176.288 22.5226 176.288 21.8751C176.288 21.2801 176.428 20.7726 176.743 20.3351C177.058 19.8801 177.46 19.5301 177.985 19.2851C178.51 19.0401 179.123 18.9001 179.77 18.9001C180.645 18.9001 181.45 19.1276 182.133 19.5651C182.833 20.0201 183.34 20.6326 183.638 21.4551L182.22 22.1026C181.993 21.5776 181.66 21.1751 181.205 20.8776C180.75 20.5626 180.243 20.4051 179.7 20.4051C179.193 20.4051 178.79 20.5276 178.493 20.8076C178.195 21.0526 178.038 21.3851 178.038 21.7701C178.038 22.0501 178.108 22.2951 178.265 22.4701C178.405 22.6451 178.598 22.7851 178.808 22.8901C179.018 22.9776 179.228 23.0476 179.42 23.1176L181.065 23.6076C181.888 23.8526 182.518 24.2201 182.955 24.7101C183.41 25.2001 183.638 25.7951 183.638 26.4951C183.638 27.0551 183.48 27.5626 183.165 28.0001C182.85 28.4551 182.413 28.8052 181.888 29.0501C181.328 29.2952 180.698 29.4351 179.98 29.4351L179.998 29.4176Z" fill="white"/>
</g>
<path d="M15.7675 0C7.0525 0 0 7.0525 0 15.7675V42L9.765 30.3625C11.6025 31.1325 13.65 31.5525 15.7675 31.5525C24.4825 31.5525 31.535 24.5 31.535 15.7675C31.535 7.035 24.4825 0 15.7675 0ZM15.7675 23.205C11.6725 23.205 8.33 19.88 8.33 15.7675C8.33 11.655 11.655 8.33 15.7675 8.33C19.88 8.33 23.205 11.655 23.205 15.7675C23.205 19.88 19.88 23.205 15.7675 23.205Z" fill="#2D68F8"/>
</svg>
